<svg width="14" height="12" viewBox="0 0 14 12" fill="none" xmlns="http://www.w3.org/2000/svg">
<path d="M13.0306 6.53122L8.53063 11.0312C8.38973 11.1721 8.19863 11.2513 7.99938 11.2513C7.80012 11.2513 7.60902 11.1721 7.46813 11.0312C7.32723 10.8903 7.24807 10.6992 7.24807 10.5C7.24807 10.3007 7.32723 10.1096 7.46813 9.96872L10.6875 6.7506H1.5C1.30109 6.7506 1.11032 6.67158 0.96967 6.53093C0.829018 6.39028 0.75 6.19951 0.75 6.0006C0.75 5.80169 0.829018 5.61092 0.96967 5.47027C1.11032 5.32962 1.30109 5.2506 1.5 5.2506H10.6875L7.46937 2.0306C7.32848 1.8897 7.24932 1.69861 7.24932 1.49935C7.24932 1.30009 7.32848 1.10899 7.46937 0.968098C7.61027 0.827201 7.80137 0.748047 8.00062 0.748047C8.19988 0.748047 8.39098 0.827201 8.53187 0.968098L13.0319 5.4681C13.1018 5.53787 13.1573 5.62077 13.1951 5.71203C13.2329 5.8033 13.2523 5.90113 13.2522 5.99992C13.252 6.0987 13.2324 6.19649 13.1944 6.28767C13.1564 6.37885 13.1007 6.46162 13.0306 6.53122Z" fill="#3F4141"/>
</svg>
