<svg width="14" height="12" viewBox="0 0 14 12" fill="none" xmlns="http://www.w3.org/2000/svg">
<path d="M0.969375 5.46878L5.46937 0.968777C5.61027 0.827881 5.80137 0.748726 6.00062 0.748726C6.19988 0.748726 6.39098 0.827881 6.53187 0.968777C6.67277 1.10967 6.75193 1.30077 6.75193 1.50003C6.75193 1.69928 6.67277 1.89038 6.53187 2.03128L3.3125 5.2494L12.5 5.2494C12.6989 5.2494 12.8897 5.32842 13.0303 5.46907C13.171 5.60972 13.25 5.80049 13.25 5.9994C13.25 6.19831 13.171 6.38908 13.0303 6.52973C12.8897 6.67038 12.6989 6.7494 12.5 6.7494L3.3125 6.7494L6.53063 9.9694C6.67152 10.1103 6.75068 10.3014 6.75068 10.5007C6.75068 10.6999 6.67152 10.891 6.53063 11.0319C6.38973 11.1728 6.19863 11.252 5.99938 11.252C5.80012 11.252 5.60902 11.1728 5.46813 11.0319L0.968125 6.5319C0.898193 6.46213 0.842733 6.37923 0.804931 6.28797C0.767128 6.1967 0.747728 6.09887 0.747845 6.00008C0.747961 5.9013 0.767591 5.80351 0.805608 5.71233C0.843625 5.62115 0.899279 5.53838 0.969375 5.46878Z" fill="#3F4141"/>
</svg>
