<svg width="9" height="16" viewBox="0 0 9 16" fill="none" xmlns="http://www.w3.org/2000/svg">
<path d="M0.586752 7.337L6.83675 1.087C7.01287 0.910876 7.25174 0.811934 7.50082 0.811934C7.74989 0.811934 7.98876 0.910876 8.16488 1.087C8.341 1.26312 8.43994 1.50199 8.43994 1.75106C8.43994 2.00013 8.341 2.239 8.16488 2.41512L2.57816 8.00028L8.16332 13.587C8.25052 13.6742 8.3197 13.7777 8.36689 13.8917C8.41409 14.0056 8.43838 14.1277 8.43838 14.2511C8.43838 14.3744 8.41409 14.4965 8.36689 14.6104C8.3197 14.7244 8.25052 14.8279 8.16332 14.9151C8.07611 15.0023 7.97258 15.0715 7.85864 15.1187C7.7447 15.1659 7.62258 15.1902 7.49925 15.1902C7.37592 15.1902 7.2538 15.1659 7.13986 15.1187C7.02592 15.0715 6.9224 15.0023 6.83519 14.9151L0.585191 8.66512C0.497893 8.57792 0.428667 8.47435 0.381483 8.36034C0.3343 8.24633 0.310087 8.12412 0.310232 8.00073C0.310377 7.87735 0.334878 7.7552 0.38233 7.6413C0.429782 7.5274 0.49925 7.42399 0.586752 7.337Z" fill="#3F4141"/>
</svg>
