<svg width="21" height="21" viewBox="0 0 21 21" fill="none" xmlns="http://www.w3.org/2000/svg">
<path d="M19 13.5131L14.5853 11.534L14.5684 11.5265C14.2815 11.4028 13.9681 11.353 13.6569 11.3816C13.3458 11.4103 13.0467 11.5165 12.7872 11.6906C12.7508 11.7149 12.7158 11.7412 12.6822 11.7693L10.5906 13.5506C9.37188 12.8896 8.11282 11.6409 7.45094 10.4371L9.23782 8.31275C9.26654 8.27847 9.29316 8.24246 9.31751 8.20494C9.48699 7.94633 9.58989 7.64983 9.61704 7.34183C9.64419 7.03383 9.59476 6.7239 9.47313 6.43963C9.47024 6.43418 9.46774 6.42854 9.46563 6.42275L7.48751 2.00056C7.32513 1.63074 7.04801 1.32302 6.69716 1.12294C6.3463 0.922862 5.94035 0.841055 5.53938 0.889627C4.17848 1.0684 2.92918 1.73645 2.02482 2.76899C1.12046 3.80154 0.62288 5.12797 0.625007 6.50057C0.625007 14.1515 6.84907 20.3756 14.5 20.3756C15.8726 20.3777 17.199 19.8801 18.2316 18.9757C19.2641 18.0714 19.9322 16.8221 20.1109 15.4612C20.1595 15.0602 20.0777 14.6543 19.8776 14.3034C19.6775 13.9526 19.3698 13.6754 19 13.5131ZM14.5 18.1256C11.418 18.1218 8.4633 16.8959 6.284 14.7166C4.1047 12.5373 2.87873 9.58256 2.87501 6.50057C2.87286 5.72384 3.13655 4.96977 3.62227 4.36364C4.10799 3.75752 4.78648 3.33585 5.54501 3.16869L7.30938 7.10619L5.51313 9.24557C5.4841 9.28016 5.45717 9.31648 5.43251 9.35432C5.25546 9.62483 5.15137 9.93654 5.13034 10.2592C5.10932 10.5818 5.17207 10.9044 5.31251 11.1956C6.19563 13.0031 8.01532 14.8106 9.84157 15.6956C10.1347 15.8345 10.4589 15.8951 10.7825 15.8713C11.106 15.8474 11.4179 15.7401 11.6875 15.5596C11.7238 15.5352 11.7585 15.5086 11.7916 15.4799L13.8944 13.6921L17.8319 15.4556C17.6647 16.2141 17.243 16.8926 16.6369 17.3783C16.0308 17.864 15.2767 18.1277 14.5 18.1256Z" fill="#789868"/>
</svg>
