<svg width="14" height="14" viewBox="0 0 14 14" fill="none" xmlns="http://www.w3.org/2000/svg">
<path d="M13.2882 11.962C13.4644 12.1381 13.5633 12.377 13.5633 12.626C13.5633 12.8751 13.4644 13.114 13.2882 13.2901C13.1121 13.4662 12.8733 13.5652 12.6242 13.5652C12.3751 13.5652 12.1362 13.4662 11.9601 13.2901L6.99997 8.32838L2.03825 13.2885C1.86213 13.4647 1.62326 13.5636 1.37418 13.5636C1.12511 13.5636 0.886243 13.4647 0.710122 13.2885C0.534002 13.1124 0.435059 12.8736 0.435059 12.6245C0.435059 12.3754 0.534002 12.1365 0.710122 11.9604L5.67184 7.00026L0.711685 2.03854C0.535564 1.86242 0.436621 1.62355 0.436621 1.37448C0.436621 1.12541 0.535564 0.886536 0.711685 0.710415C0.887805 0.534295 1.12668 0.435351 1.37575 0.435351C1.62482 0.435351 1.86369 0.534295 2.03981 0.710415L6.99997 5.67213L11.9617 0.709634C12.1378 0.533514 12.3767 0.43457 12.6257 0.43457C12.8748 0.43457 13.1137 0.533514 13.2898 0.709634C13.4659 0.885754 13.5649 1.12462 13.5649 1.3737C13.5649 1.62277 13.4659 1.86164 13.2898 2.03776L8.32809 7.00026L13.2882 11.962Z" fill="#3F4141"/>
</svg>
