<svg width="21" height="20" viewBox="0 0 21 20" fill="none" xmlns="http://www.w3.org/2000/svg">
<g opacity="0.3">
<path d="M3.58675 6.83681C3.67385 6.74941 3.77734 6.68006 3.8913 6.63274C4.00525 6.58543 4.12743 6.56107 4.25082 6.56107C4.3742 6.56107 4.49638 6.58543 4.61033 6.63274C4.72429 6.68006 4.82778 6.74941 4.91488 6.83681L10.5 12.422L16.0868 6.83681C16.2629 6.66069 16.5017 6.56174 16.7508 6.56174C16.9999 6.56174 17.2388 6.66069 17.4149 6.83681C17.591 7.01293 17.6899 7.2518 17.6899 7.50087C17.6899 7.74994 17.591 7.98881 17.4149 8.16493L11.1649 14.4149C11.0778 14.5023 10.9743 14.5717 10.8603 14.619C10.7464 14.6663 10.6242 14.6907 10.5008 14.6907C10.3774 14.6907 10.2553 14.6663 10.1413 14.619C10.0273 14.5717 9.92385 14.5023 9.83675 14.4149L3.58675 8.16493C3.49935 8.07784 3.43001 7.97434 3.38269 7.86039C3.33537 7.74643 3.31101 7.62426 3.31101 7.50087C3.31101 7.37748 3.33537 7.25531 3.38269 7.14135C3.43001 7.0274 3.49935 6.92391 3.58675 6.83681Z" fill="#3F4141"/>
</g>
</svg>
