<svg width="20" height="20" viewBox="0 0 20 20" fill="none" xmlns="http://www.w3.org/2000/svg">
<g clip-path="url(#clip0_2146_23094)">
<path d="M10.8332 16.6151C12.5142 16.4012 14.0508 15.5552 15.1305 14.2491C16.2102 12.9429 16.7521 11.2747 16.646 9.58339C16.5399 7.89209 15.7937 6.30465 14.5592 5.14373C13.3247 3.98281 11.6945 3.33552 9.99984 3.33341C8.30314 3.33215 6.66979 3.97786 5.43262 5.13898C4.19545 6.3001 3.44754 7.88924 3.34129 9.58261C3.23504 11.276 3.77845 12.9462 4.86079 14.2528C5.94313 15.5595 7.48295 16.4043 9.1665 16.6151V11.6667H7.49984V10.0001H9.1665V8.62175C9.1665 7.50758 9.28317 7.10341 9.49984 6.69591C9.71327 6.29274 10.0431 5.96315 10.4465 5.75008C10.7648 5.57925 11.1607 5.47675 11.8523 5.43258C12.1265 5.41508 12.4815 5.43675 12.9173 5.49925V7.08258H12.4998C11.7357 7.08258 11.4198 7.11841 11.2315 7.21925C11.1191 7.27705 11.0276 7.36854 10.9698 7.48091C10.8698 7.66925 10.8332 7.85591 10.8332 8.62091V10.0001H12.9165L12.4998 11.6667H10.8332V16.6151ZM9.99984 18.3334C5.39734 18.3334 1.6665 14.6026 1.6665 10.0001C1.6665 5.39758 5.39734 1.66675 9.99984 1.66675C14.6023 1.66675 18.3332 5.39758 18.3332 10.0001C18.3332 14.6026 14.6023 18.3334 9.99984 18.3334Z" fill="#789868"/>
</g>
<defs>
<clipPath id="clip0_2146_23094">
<rect width="20" height="20" fill="white"/>
</clipPath>
</defs>
</svg>
