<svg width="119" height="56" viewBox="0 0 119 56" fill="none" xmlns="http://www.w3.org/2000/svg">
<g clip-path="url(#clip0_2037_412)">
<path d="M57.4873 19.4985L52.6862 19.5137H52.4686L52.4838 0.632812H60.5886C61.9141 0.632812 63.0727 0.779528 64.0794 1.05272C65.0862 1.32592 65.9766 1.90772 66.7406 2.79308C67.4235 3.59749 67.6411 4.63968 67.4084 5.88929C67.1757 7.13891 66.5331 8.11533 65.5112 8.8135C64.4741 9.51166 62.9867 10.3262 61.0338 11.2925C59.081 12.2537 57.9072 13.4275 57.4873 14.8238V19.4985ZM60.0928 10.1441C61.388 8.48465 62.1114 6.79995 62.248 5.10006C62.3138 4.35131 62.2885 3.66326 62.1671 3.04604C62.0558 2.42882 61.8382 1.92796 61.5144 1.54346C61.1856 1.15897 60.7353 0.976836 60.1485 0.976836H57.5025V9.21317L57.4873 14.1813C57.9224 13.1391 58.7977 11.7984 60.0928 10.1491" fill="white"/>
<path d="M74.1624 3.12193C74.1624 4.49296 73.0038 5.61104 71.5822 5.61104C70.1606 5.61104 69.002 4.49296 69.002 3.12193C69.002 1.75089 70.1606 0.632812 71.5822 0.632812C73.0038 0.632812 74.1624 1.74077 74.1624 3.12193ZM69.2347 19.4479L69.2499 7.03773C71.2281 7.42222 72.9077 6.94666 74.3141 5.5908V19.4529H69.2347V19.4479Z" fill="white"/>
<path d="M76.4036 19.4479L76.4188 2.02913C78.999 2.16067 80.6887 1.67499 81.483 0.577148V19.4428H76.4036V19.4479Z" fill="white"/>
<path d="M83.9468 19.4479L83.962 2.02913C86.5422 2.16067 88.232 1.67499 89.0263 0.577148V19.4428H83.9468V19.4479Z" fill="white"/>
<path d="M93.5441 6.79998C94.0753 6.3143 94.7431 5.99557 95.5779 5.84886C96.3975 5.70214 97.2828 5.63637 98.239 5.65155C99.2104 5.66673 100.121 5.83368 100.996 6.15241C101.856 6.48125 102.565 6.95682 103.126 7.57403C103.688 8.20643 103.956 8.99566 103.971 9.93161L103.986 17.3484C103.971 17.662 103.986 17.9909 104.027 18.3248C104.052 18.6536 104.148 18.942 104.3 19.1798C104.452 19.4327 104.71 19.5491 105.064 19.5491H100.779C100.04 19.5643 99.524 19.367 99.2357 18.9825C98.9473 18.598 98.8512 17.9403 98.9776 17.0195C98.1581 18.0465 97.2423 18.7599 96.2356 19.1393C95.2136 19.5339 94.2574 19.6402 93.3417 19.4682C92.426 19.2961 91.7026 18.8611 91.1713 18.1932C90.6401 17.5204 90.4479 16.6249 90.5997 15.5169C90.7514 14.6366 91.0904 13.9486 91.6115 13.4477C92.1275 12.9469 92.7447 12.5674 93.453 12.2892C94.1512 12.0109 94.8696 11.7883 95.5981 11.6163C96.4734 11.4038 97.2221 11.1408 97.8646 10.8372C98.492 10.5337 98.8613 10.048 98.9675 9.4004C99.1294 7.72581 98.6134 6.72409 97.4245 6.41042C96.2255 6.10687 95.2541 6.14735 94.5155 6.55714C95.2693 6.50655 95.8663 6.68868 96.3469 7.12377C96.8224 7.55886 97.0552 8.07489 97.0552 8.66682C97.0552 9.25874 96.8376 9.77478 96.3975 10.1795C95.9624 10.5994 95.4312 10.8119 94.8139 10.8119C94.1967 10.8119 93.6807 10.5994 93.2456 10.1795C92.8105 9.76972 92.593 9.25874 92.593 8.66682C92.593 8.38856 92.6334 8.14066 92.7296 7.90288C92.8662 7.53356 93.1394 7.16424 93.5492 6.79492M98.5324 10.7057C98.2997 10.9181 98.0417 11.1408 97.7432 11.3634C97.2373 11.7175 96.7465 12.1678 96.2963 12.6787C95.846 13.2049 95.5728 13.8778 95.507 14.7075C95.4919 15.5776 95.6841 16.2758 96.0787 16.7919C96.4582 17.318 96.9236 17.5963 97.47 17.6216C98.0164 17.6469 98.5223 17.3433 98.9827 16.7261L98.9675 10.0581C98.9018 10.2807 98.75 10.5084 98.5324 10.7057Z" fill="white"/>
<path d="M114.408 6.46573C113.75 6.63774 113.25 6.95141 112.906 7.42697C112.182 8.40339 111.691 9.75925 111.459 11.4996L111.443 19.5741H106.364L106.379 6.91094C108.661 7.12342 110.351 6.72881 111.454 5.71191V9.67831C111.656 8.626 112.066 7.74064 112.693 7.01718C113.376 6.25325 114.277 5.86875 115.379 5.88393C116.498 5.88393 117.358 6.12171 118 6.59727C118.627 7.07283 118.956 7.73053 118.972 8.57541C118.972 9.16733 118.754 9.68337 118.319 10.0881C117.884 10.508 117.363 10.7205 116.751 10.7205C116.138 10.7205 115.602 10.508 115.167 10.0881C114.732 9.67831 114.514 9.16733 114.514 8.57541C114.499 7.61416 114.909 6.98177 115.744 6.66304C115.511 6.34937 115.061 6.27854 114.408 6.46573Z" fill="white"/>
<path d="M57.6998 41.5161L52.8936 41.5312H52.6761L52.6912 22.6504H60.796C62.1215 22.6504 63.2801 22.7971 64.2919 23.0703C65.3038 23.3486 66.1891 23.9253 66.953 24.8107C67.636 25.6151 67.8536 26.6573 67.6209 27.9069C67.3881 29.1565 66.7456 30.1329 65.7237 30.8311C64.6865 31.5292 63.1991 32.3488 61.2463 33.3101C59.2935 34.2713 58.1197 35.445 57.6998 36.8414V41.5161ZM60.3053 32.1616C61.6004 30.5022 62.3239 28.8175 62.4605 27.1126C62.5263 26.3638 62.501 25.6758 62.3796 25.0586C62.2683 24.4413 62.0507 23.9405 61.7219 23.556C61.393 23.1715 60.9427 22.9894 60.3559 22.9894H57.7099V31.2206L57.6948 36.1887C58.1298 35.1466 59.0051 33.8059 60.3002 32.1566" fill="white"/>
<path d="M69.1791 28.8174C69.7103 28.3317 70.3781 28.013 71.2129 27.8713C72.0325 27.7246 72.9178 27.6588 73.874 27.674C74.8403 27.6892 75.756 27.8561 76.6313 28.1749C77.4913 28.5037 78.1996 28.9793 78.7612 29.5965C79.3227 30.2289 79.5959 31.0181 79.6061 31.9541L79.6212 39.3708C79.6061 39.6845 79.6212 40.0133 79.6617 40.3472C79.687 40.6761 79.7831 40.9645 79.9349 41.2022C80.0867 41.4501 80.3447 41.5716 80.6988 41.5716H76.4137C75.6751 41.5867 75.159 41.3844 74.8707 41.0049C74.5823 40.6204 74.4862 39.9627 74.6127 39.042C73.7931 40.069 72.8774 40.7823 71.8706 41.1618C70.8486 41.5564 69.8924 41.6626 68.9767 41.4906C68.061 41.3186 67.3376 40.8835 66.8064 40.2106C66.2751 39.5378 66.0829 38.6423 66.2347 37.5343C66.3864 36.654 66.7254 35.966 67.2465 35.4651C67.7625 34.9643 68.3798 34.5848 69.088 34.3066C69.7862 34.0283 70.5046 33.8057 71.2331 33.6337C72.1084 33.4212 72.8571 33.1582 73.4996 32.8546C74.127 32.5511 74.4963 32.0654 74.6025 31.4178C74.7644 29.7432 74.2484 28.7415 73.0595 28.4278C71.8605 28.1243 70.8891 28.1647 70.1505 28.5745C70.9043 28.5189 71.5013 28.7061 71.9819 29.1412C72.4574 29.5763 72.6902 30.0923 72.6902 30.6842C72.6902 31.2761 72.4726 31.7922 72.0375 32.202C71.6024 32.6219 71.0662 32.8344 70.454 32.8344C69.8419 32.8344 69.3208 32.6219 68.8857 32.202C68.4506 31.7922 68.233 31.2812 68.233 30.6842C68.233 30.406 68.2735 30.1581 68.3696 29.9203C68.5062 29.551 68.7794 29.1816 69.1892 28.8123M74.1725 32.7231C73.9398 32.9356 73.6818 33.1582 73.3833 33.3808C72.8774 33.7349 72.3866 34.1852 71.9364 34.6961C71.4861 35.2223 71.2129 35.8952 71.1471 36.7249C71.1319 37.595 71.3242 38.2932 71.7188 38.8042C72.0982 39.3303 72.5637 39.6086 73.1101 39.6339C73.6565 39.6592 74.1624 39.3556 74.6278 38.7384L74.6127 32.0704C74.5469 32.293 74.3951 32.5156 74.1776 32.7129" fill="white"/>
<path d="M90.0431 28.489C89.3905 28.661 88.8846 28.9747 88.5406 29.4502C87.8171 30.4267 87.3264 31.7825 87.0936 33.5229L87.0785 41.5973H81.9991L82.0142 28.9393C84.2909 29.1517 85.9857 28.7571 87.0886 27.7402V31.7066C87.2909 30.6543 87.7007 29.769 88.3281 29.0455C89.0111 28.2816 89.9116 27.8971 91.0145 27.9122C92.1326 27.9122 92.9926 28.15 93.6352 28.6256C94.2625 29.1012 94.5913 29.7588 94.6065 30.5987C94.6065 31.1906 94.389 31.7066 93.9539 32.1164C93.5188 32.5363 92.9977 32.7488 92.3855 32.7488C91.7734 32.7488 91.2371 32.5363 90.802 32.1164C90.3669 31.7066 90.1494 31.1956 90.1494 30.5987C90.1342 29.6374 90.544 29.005 91.3788 28.6914C91.146 28.3777 90.6958 28.3069 90.0431 28.4941" fill="white"/>
<path d="M101.042 41.5413H95.9674V23.9658C98.5729 24.0821 100.268 23.6521 101.042 22.6504V31.848C101.371 30.568 101.927 29.5966 102.721 28.8985C103.637 28.0941 104.603 27.75 105.656 27.8563C106.597 27.9473 107.416 28.3723 108.069 29.1059C108.494 29.5258 108.696 30.0165 108.696 30.5933C108.696 31.17 108.479 31.7013 108.044 32.1212C107.609 32.5411 107.072 32.7536 106.46 32.7536C105.848 32.7536 105.327 32.5411 104.892 32.1212C104.457 31.7013 104.239 31.1852 104.239 30.5933C104.239 30.0014 104.457 29.5005 104.892 29.0806C105.246 28.7366 105.727 28.5292 106.339 28.4482C105.261 28.1194 104.386 28.1598 103.718 28.5696C103.035 28.9794 102.438 29.6371 101.902 30.5478C101.517 31.2055 101.234 31.9846 101.042 32.8547V33.8565H105.954L109.991 41.5515H104.917L101.042 34.1752V41.5515V41.5413Z" fill="white"/>
<path d="M46.256 0H45.2694V55.9292H46.256V0Z" fill="white"/>
<path d="M17.4389 15.8706C10.2195 21.1979 2.44857 19.7207 2.44857 19.7207C1.21919 20.09 -0.00512695 19.1287 -0.00512695 17.7982V1.41657C-6.77789e-05 0.637456 0.612092 0 1.36085 0H24.2334C30.2234 0.445207 26.338 9.29876 17.4338 15.8656" fill="white"/>
<path d="M16.8976 55.8891H1.61385C0.723431 55.8891 -3.05176e-05 55.1403 -3.05176e-05 54.2094V24.674C-3.05176e-05 23.8038 0.677899 23.1006 1.51266 23.1006C1.51266 23.1006 10.0576 23.4244 15.2382 32.885C17.8487 37.6457 18.3395 49.8383 18.4305 54.26C18.4508 55.1555 17.7577 55.8891 16.8976 55.8891Z" fill="white"/>
<path d="M21.6229 39.0013C20.0393 38.9557 18.724 37.7162 18.5115 36.077C18.046 32.4547 17.5097 26.0042 18.9111 22.3009C22.0175 14.0646 28.3769 9.48603 31.6451 7.58378C32.8492 6.88561 34.3619 7.13857 35.2826 8.20606C37.3974 10.6446 40.8123 15.4457 40.3873 20.5808C38.9758 37.529 27.0766 39.1631 21.6229 39.0013Z" fill="white"/>
<path d="M54.9173 52.8585C54.9173 52.8585 54.8819 52.8585 54.8616 52.8585C54.806 52.8585 54.7503 52.8534 54.6947 52.8433C54.5328 52.8281 54.381 52.8028 54.2343 52.7674C53.784 52.6511 53.4451 52.4537 53.2174 52.1704C53.2326 52.5903 53.3034 52.9394 53.4349 53.2076C53.5665 53.4706 53.7739 53.6882 54.0521 53.8602C55.0437 54.3459 55.8127 54.8012 56.3541 55.2262C56.521 55.3628 56.6627 55.4842 56.7689 55.5955C56.8043 55.636 56.8347 55.6714 56.8549 55.7017C56.86 55.7119 56.8701 55.722 56.8752 55.727H56.8853V55.7422L56.9814 55.894H55.5294L55.4991 55.8434V55.8333L55.489 55.8232C55.4788 55.808 55.4687 55.7928 55.4586 55.7776C55.4282 55.727 55.3928 55.6815 55.3473 55.6309C55.2208 55.464 55.064 55.3021 54.8869 55.1553C54.3203 54.6899 53.6171 54.4116 52.7823 54.3256C52.6356 54.3105 52.4534 54.3459 52.2308 54.4369C52.0285 54.5229 51.8565 54.6191 51.7199 54.7354L51.6035 54.8316L51.4619 54.3863L51.4973 54.3358C51.7553 54.0322 52.1651 53.8349 52.7115 53.754C52.6406 53.6781 52.5799 53.5921 52.5192 53.501C52.4433 53.3897 52.3826 53.2683 52.327 53.1367C52.1853 52.8129 52.1044 52.4588 52.0942 52.0692V50.0051C52.0942 49.2867 52.3472 48.6998 52.8531 48.2445C53.359 47.7892 54.0117 47.5615 54.8161 47.5615C55.2461 47.5615 55.6508 47.6273 56.0404 47.7639C56.4249 47.9005 56.7386 48.0877 56.9865 48.3255C57.2546 48.5835 57.4418 48.8567 57.543 49.14C57.6391 49.4284 57.6897 49.8381 57.6998 50.3694C57.6998 50.4908 57.6948 50.6122 57.6846 50.7387C57.6644 50.8905 57.634 51.0422 57.5936 51.1839C57.4924 51.5583 57.3103 51.877 57.0522 52.13C56.5767 52.6207 55.8785 52.8635 54.9679 52.8686H54.9274L54.9173 52.8585ZM53.2376 50.4402C53.2376 50.7741 53.2427 51.0018 53.2579 51.1232C53.2832 51.3154 53.3439 51.4874 53.445 51.6493C53.7334 52.13 54.1837 52.3728 54.7958 52.3728C55.408 52.3728 55.833 52.1907 56.1416 51.8264C56.2984 51.6342 56.4097 51.4267 56.4654 51.2092C56.5261 50.9916 56.5564 50.6931 56.5564 50.3137C56.5564 49.5599 56.4553 49.0186 56.2529 48.6998C55.9392 48.2091 55.4586 47.9663 54.8211 47.9663C54.2646 47.9663 53.865 48.1484 53.6171 48.5177C53.3692 48.887 53.2427 49.4739 53.2427 50.2884V50.4351L53.2376 50.4402Z" fill="white"/>
<path d="M64.1301 48.3412C64.3527 48.5435 64.5247 48.8167 64.6461 49.1557C64.7574 49.4592 64.813 49.7577 64.813 50.0562V53.3801C64.813 53.4105 64.813 53.8658 64.808 54.741C64.808 55.0041 64.7473 55.2469 64.6309 55.4695C64.5904 55.5505 64.5398 55.6264 64.4893 55.7023C64.469 55.7276 64.4437 55.7529 64.4235 55.7832L64.3982 55.8186L64.3729 55.8389L64.3375 55.8793L64.2717 55.8945H62.9159V55.6264L62.9766 55.596C63.3206 55.4442 63.523 55.1862 63.5988 54.827C63.5988 54.8169 63.6039 54.7866 63.6039 54.7309V54.4122C63.6039 54.3413 63.609 54.2806 63.609 54.2199V49.9297C63.609 49.8437 63.609 49.7476 63.6039 49.6313C63.5938 49.4997 63.5735 49.3682 63.5533 49.2417C63.4926 48.9179 63.4066 48.6852 63.2953 48.5385C62.9867 48.159 62.5111 47.9668 61.8737 47.9668C61.1856 47.9668 60.6797 48.2046 60.366 48.6751C60.1687 48.9786 60.0726 49.4086 60.0827 49.9753V50.0815H60.0777V54.4476C60.0777 54.5791 60.0827 54.6803 60.0878 54.7461C60.0878 54.7714 60.0878 54.7916 60.0878 54.8068V54.8169L60.0928 54.827C60.1687 55.1913 60.3761 55.4442 60.7151 55.596L60.7758 55.6264V55.8945H59.3643L59.3289 55.854L59.3036 55.8287L59.2783 55.7933C59.253 55.763 59.2277 55.7326 59.2075 55.7073C59.1518 55.6314 59.1012 55.5555 59.0608 55.4746C58.9444 55.252 58.8837 55.0041 58.8837 54.741V52.8287C58.8837 52.343 58.8786 51.9231 58.8786 51.579C58.8786 50.6228 58.8786 50.0866 58.8837 49.9753C58.8837 49.6464 58.9545 49.3378 59.0911 49.0444C59.2277 48.7459 59.4149 48.498 59.6527 48.2956C60.2396 47.7948 60.9832 47.5469 61.8787 47.5469C62.7742 47.5469 63.5432 47.81 64.125 48.3412" fill="white"/>
<path d="M72.1438 47.5463C72.9128 47.5463 73.4895 47.8296 73.8841 48.3962C74.1826 48.8313 74.3293 49.3321 74.3293 49.9038C74.3293 50.091 74.2939 50.3339 74.213 50.6323C74.127 50.9663 74.0258 51.2445 73.8993 51.457L73.8841 51.4924L72.7711 51.9376L72.8875 51.6998C72.9634 51.5531 73.0291 51.285 73.0898 50.8904C73.1505 50.5109 73.1809 50.1922 73.1809 49.9291C73.1809 49.7369 73.1708 49.5547 73.1556 49.3726C73.1303 49.1247 73.0848 48.9072 73.0241 48.72C72.8571 48.209 72.5789 47.956 72.1944 47.956H72.1589C71.7947 47.9712 71.5114 48.1028 71.309 48.3507C71.1066 48.5986 70.9751 48.9831 70.9194 49.494C70.9043 49.6964 70.8992 49.9544 70.9043 50.2681C70.9093 50.5818 70.9245 50.7689 70.9498 50.8195C70.97 50.855 71.0156 50.8853 71.0813 50.9106C71.1572 50.946 71.2331 50.9612 71.3141 50.9663H71.4051V51.2293L71.3141 51.2394C71.1977 51.2496 71.0257 51.29 70.798 51.3508C70.6968 51.376 70.5451 51.4216 70.3528 51.4873C70.2921 51.5076 70.2263 51.5278 70.1606 51.5481C70.1403 51.5531 70.1252 51.5632 70.1049 51.5683H70.0897L70.0847 51.5734L69.9481 51.6239V50.6121C69.9481 50 69.9481 49.5851 69.9481 49.3726C69.9531 49.0134 69.8671 48.6997 69.685 48.4367C69.4776 48.1382 69.1841 47.9813 68.8148 47.956C68.6732 47.951 68.5315 47.9712 68.3797 48.0269C68.2027 48.0926 68.0509 48.1938 67.9295 48.3254C67.6866 48.5935 67.5854 48.9578 67.6259 49.4131V51.3811C67.6512 52.1906 67.7119 52.7218 67.8081 52.9798C67.9497 53.3592 68.2684 53.6476 68.7541 53.8449C69.771 54.0675 70.7019 54.4419 71.5518 54.9579C71.825 55.1249 72.0729 55.2918 72.2955 55.4689C72.3664 55.5246 72.4321 55.5802 72.4928 55.6359C72.5131 55.6561 72.5283 55.6713 72.5485 55.6865C72.5485 55.6865 72.5586 55.6915 72.5637 55.6966H72.5687V55.7067L72.7509 55.8838H70.9599L70.9245 55.8433H70.9194L70.9144 55.8281C70.9043 55.8129 70.8942 55.8028 70.879 55.7876C70.8385 55.7421 70.793 55.6915 70.7373 55.646C70.5754 55.4942 70.3832 55.3475 70.1606 55.2109C69.4523 54.7758 68.5872 54.5026 67.5703 54.3913C67.3881 54.3711 67.1554 54.4014 66.8822 54.4925C66.6343 54.5684 66.4168 54.6696 66.2397 54.7859L66.1385 54.8517L65.9615 54.4318L66.0171 54.3812C66.2903 54.1282 66.7153 53.9512 67.3021 53.855C66.9632 53.5717 66.7254 53.1872 66.5837 52.6914C66.5382 52.5346 66.5078 52.3727 66.4927 52.2007C66.4876 52.14 66.4825 52.0843 66.4775 52.0287V49.5294C66.4775 48.8161 66.7709 48.2798 67.3578 47.9206C67.5753 47.784 67.8182 47.6829 68.0914 47.6171C68.3089 47.5614 68.5163 47.5361 68.7035 47.5361H68.7541C69.5484 47.5361 70.1353 47.779 70.5096 48.2697C70.9346 47.779 71.481 47.5361 72.1488 47.5361" fill="white"/>
<path d="M81.7815 47.5771C82.3482 47.5822 82.8591 47.7846 83.3094 48.1741C83.8659 48.6598 84.1492 49.3226 84.1492 50.1624V54.8118C84.1391 55.0192 84.0835 55.2367 83.9823 55.4492C83.9469 55.5302 83.9013 55.6111 83.8507 55.6921C83.8305 55.7224 83.8153 55.7528 83.7951 55.7831L83.7698 55.8287L83.7445 55.8691L83.7192 55.9147L83.6534 55.9248H82.3937V55.6567L82.4645 55.6364C82.6112 55.5909 82.7428 55.4796 82.8541 55.3076C82.9654 55.1254 83.0261 54.9484 83.0261 54.7612V50.1674C83.0059 49.358 82.8187 48.7863 82.4595 48.4423C82.3279 48.3158 82.1761 48.2298 82.0041 48.1741C81.8777 48.1337 81.7512 48.1134 81.6196 48.1134C81.2908 48.1134 81.0024 48.2348 80.7596 48.4777C80.6331 48.6092 80.5319 48.7509 80.456 48.9178C80.3903 49.0645 80.3548 49.1809 80.3548 49.272V51.6093C80.3548 51.9382 80.3548 52.1911 80.365 52.3682C80.365 52.5048 80.37 52.5908 80.3751 52.6262C80.4358 53.0309 80.5876 53.2687 80.8355 53.3345L80.9113 53.3547V53.6127L80.795 53.6026C80.6533 53.5824 80.537 53.5773 80.4408 53.5773H79.2014C79.1103 53.5773 78.9838 53.5874 78.8067 53.6026L78.6904 53.6127V53.3547L78.7612 53.3345C78.9939 53.2637 79.1406 53.0613 79.2064 52.7223C79.2266 52.5857 79.2418 52.2822 79.2418 51.8016V49.272C79.2418 49.272 79.2418 49.2467 79.2368 49.2264C79.2368 49.2062 79.2368 49.1809 79.2267 49.1556C79.2165 49.0848 79.1963 49.019 79.171 48.9482C79.1002 48.7509 78.999 48.5839 78.8624 48.4473C78.6347 48.2247 78.3362 48.1134 77.9619 48.1134C77.6229 48.1134 77.3295 48.2348 77.0866 48.4777C76.7325 48.8318 76.5605 49.3934 76.5756 50.1624V54.7612C76.5756 54.9433 76.6313 55.1254 76.7477 55.3076C76.859 55.4846 76.9854 55.5959 77.1322 55.6364L77.208 55.6567V55.9248H75.8876L75.8623 55.8793L75.8319 55.8337L75.8066 55.7932C75.7864 55.7578 75.7662 55.7224 75.7459 55.6921C75.6953 55.6061 75.6498 55.5251 75.6144 55.4442C75.5183 55.2266 75.4576 55.0141 75.4424 54.8118V50.1573C75.4424 49.2517 75.7358 48.5637 76.3227 48.0982C76.5453 47.9161 76.8033 47.7846 77.0917 47.6935C77.3396 47.6176 77.5774 47.5771 77.8101 47.5771C78.2452 47.5771 78.6448 47.6581 78.999 47.82C79.3531 47.9819 79.6263 48.1994 79.8085 48.4726C80.2688 47.8756 80.9164 47.5771 81.7512 47.5771H81.7866H81.7815Z" fill="white"/>
<path d="M89.7295 47.9567C90.0178 48.1186 90.2657 48.326 90.4631 48.5789C90.7008 48.8876 90.8223 49.2063 90.8223 49.5351V53.456C90.8223 54.2149 90.5238 54.8169 89.9318 55.2722C89.3905 55.682 88.7379 55.8895 87.9739 55.8895C87.5439 55.8895 87.1392 55.8237 86.7597 55.6871C86.3752 55.5555 86.0565 55.3684 85.8137 55.1306C85.3432 54.6753 85.1104 54.0327 85.1104 53.203C85.1104 52.9855 85.1459 52.7477 85.2217 52.4947C85.3128 52.176 85.4494 51.8876 85.6366 51.6347C86.1273 50.9517 86.8609 50.6077 87.8323 50.6026C88.2775 50.6026 88.6772 50.6987 89.0262 50.8859C89.2893 51.0225 89.5069 51.2047 89.6839 51.4323V49.3834V49.3429C89.6839 49.3125 89.6839 49.2822 89.6789 49.2518C89.6688 49.1506 89.6435 49.0494 89.6131 48.9483C89.5119 48.6346 89.3399 48.4019 89.0819 48.2602C88.7379 48.068 88.3837 47.9668 88.0245 47.9668C87.5389 47.9668 87.1189 48.068 86.7648 48.2754C86.355 48.5132 86.1273 48.8521 86.0818 49.2822L86.0717 49.3783H85.8541L85.4646 48.073L85.5405 48.0326C85.8794 47.8757 86.2538 47.7543 86.6687 47.6683C87.0785 47.5873 87.4933 47.5469 87.9031 47.5469C88.6215 47.5469 89.2337 47.6835 89.7345 47.9567M89.689 53.1676C89.689 52.6162 89.5726 52.1457 89.3399 51.746C89.0515 51.2704 88.6013 51.0326 87.9841 51.0326C87.4225 51.0326 86.9773 51.235 86.6434 51.6347C86.4865 51.8269 86.3752 52.0293 86.3196 52.2468C86.2589 52.4644 86.2336 52.7629 86.2336 53.1373C86.2336 53.8911 86.3348 54.4324 86.5371 54.7511C86.8407 55.2166 87.3162 55.4493 87.9638 55.4493C88.5456 55.4493 88.9757 55.2621 89.259 54.8928C89.5473 54.5184 89.689 53.9417 89.689 53.1676Z" fill="white"/>
<path d="M97.6066 48.3412C97.8241 48.5435 98.0012 48.8167 98.1226 49.1557C98.2339 49.4592 98.2896 49.7577 98.2896 50.0562V53.3801C98.2896 53.4105 98.2896 53.8658 98.2845 54.741C98.2845 55.0041 98.2238 55.2469 98.1075 55.4695C98.067 55.5505 98.0214 55.6264 97.9658 55.7023C97.9456 55.7276 97.9203 55.7529 97.9 55.7832L97.8747 55.8186L97.8494 55.8389L97.814 55.8793L97.7483 55.8945H96.3924V55.6264L96.4531 55.596C96.7971 55.4442 96.9995 55.1862 97.0754 54.827C97.0754 54.8169 97.0804 54.7866 97.0804 54.7309V54.4122C97.0804 54.3413 97.0855 54.2806 97.0855 54.2199V49.9297C97.0855 49.8437 97.0855 49.7476 97.0804 49.6313C97.0703 49.4997 97.0551 49.3682 97.0298 49.2417C96.9691 48.9179 96.8831 48.6852 96.7718 48.5385C96.4632 48.159 95.9927 47.9668 95.3502 47.9668C94.6622 47.9668 94.1562 48.2046 93.8426 48.6751C93.6453 48.9786 93.5491 49.4086 93.5593 49.9753V50.0815H93.5542V54.4476C93.5542 54.5791 93.5593 54.6803 93.5643 54.7461C93.5643 54.7714 93.5694 54.7916 93.5694 54.8068V54.8169L93.5744 54.827C93.6503 55.1913 93.8577 55.4442 94.1967 55.596L94.2574 55.6264V55.8945H92.8459L92.8105 55.854L92.7852 55.8287L92.7599 55.7933C92.7346 55.763 92.7093 55.7326 92.6891 55.7073C92.6334 55.6314 92.5828 55.5555 92.5424 55.4746C92.426 55.252 92.3653 55.0041 92.3653 54.741V52.8287C92.3653 52.343 92.3602 51.9231 92.3602 51.579C92.3602 50.6228 92.3602 50.0866 92.3653 49.9753C92.3653 49.6464 92.4412 49.3378 92.5727 49.0444C92.7093 48.7459 92.8965 48.498 93.1343 48.2956C93.7211 47.7948 94.4648 47.5469 95.3603 47.5469C96.2558 47.5469 97.0248 47.81 97.6066 48.3412Z" fill="white"/>
<path d="M105.585 52.0083L104.993 51.6289C104.963 51.6036 104.912 51.5631 104.836 51.5024C104.76 51.4417 104.684 51.3607 104.603 51.2545C104.497 51.128 104.396 50.9661 104.305 50.7789C104.214 50.6018 104.173 50.3944 104.173 50.1566C104.173 50.0807 104.184 49.9998 104.194 49.9087C104.209 49.8278 104.229 49.7468 104.249 49.6608C104.366 49.337 104.588 49.0386 104.927 48.7704C105.256 48.5124 105.732 48.3809 106.349 48.3809C107.001 48.3809 107.518 48.5326 107.897 48.8311C108.266 49.1397 108.448 49.4888 108.448 49.8784C108.448 50.2679 108.322 50.612 108.074 50.87C107.826 51.1331 107.472 51.3607 107.007 51.5479L107.558 51.9122C107.593 51.9324 107.629 51.9577 107.659 51.9779C107.69 51.9982 107.725 52.0235 107.76 52.0437C108.206 52.3827 108.484 52.7115 108.595 53.0201C108.706 53.3237 108.762 53.5716 108.762 53.7638C108.762 54.4468 108.524 54.9881 108.054 55.3878C107.578 55.7824 107.057 55.9899 106.49 56.005H106.42C105.6 56.005 104.973 55.8077 104.538 55.4081C104.103 55.0134 103.885 54.5581 103.885 54.032C103.885 53.5463 104.062 53.1365 104.416 52.8178C104.76 52.494 105.15 52.2258 105.59 52.0133M107.108 52.9847L105.878 52.1854C105.681 52.2916 105.524 52.413 105.393 52.5446C105.266 52.6862 105.16 52.8329 105.079 52.9746C104.968 53.1871 104.892 53.3894 104.866 53.5766C104.826 53.7739 104.801 53.9156 104.796 54.0067V54.0522C104.796 54.0522 104.786 54.0826 104.786 54.0977V54.2444C104.786 54.2444 104.786 54.2748 104.796 54.29V54.376C104.836 54.8566 105.013 55.2158 105.332 55.4485C105.641 55.6863 105.995 55.8077 106.399 55.8077C106.865 55.8077 107.229 55.6661 107.497 55.3828C107.755 55.0944 107.882 54.7757 107.882 54.4165C107.882 54.3153 107.872 54.1939 107.846 54.0573C107.826 53.9207 107.781 53.7841 107.71 53.6373C107.649 53.526 107.578 53.4097 107.482 53.3034C107.381 53.1921 107.259 53.0808 107.108 52.9847ZM105.742 50.7536L106.738 51.386C106.926 51.2949 107.077 51.1938 107.189 51.0825C107.3 50.9712 107.391 50.8599 107.462 50.7435C107.548 50.5917 107.598 50.445 107.624 50.3033C107.639 50.1617 107.644 50.0504 107.644 49.9694C107.644 49.5394 107.523 49.2055 107.28 48.9627C107.037 48.7198 106.723 48.6035 106.344 48.6035C105.878 48.6035 105.539 48.7046 105.332 48.907C105.109 49.1144 105.003 49.3472 105.003 49.5951C105.003 49.843 105.059 50.0504 105.175 50.2072C105.291 50.3742 105.413 50.5057 105.549 50.6069C105.58 50.6373 105.61 50.6625 105.651 50.6878C105.686 50.7081 105.721 50.7334 105.752 50.7536" fill="white"/>
</g>
<defs>
<clipPath id="clip0_2037_412">
<rect width="118.982" height="56" fill="white"/>
</clipPath>
</defs>
</svg>
