<svg width="119" height="56" viewBox="0 0 119 56" fill="none" xmlns="http://www.w3.org/2000/svg">
<g clip-path="url(#clip0_2043_1224)">
<path d="M57.4875 19.4985L52.6863 19.5137H52.4688L52.4839 0.632812H60.5887C61.9142 0.632812 63.0728 0.779528 64.0796 1.05272C65.0863 1.32592 65.9767 1.90772 66.7407 2.79308C67.4237 3.59749 67.6412 4.63968 67.4085 5.88929C67.1758 7.13891 66.5333 8.11533 65.5113 8.8135C64.4742 9.51166 62.9868 10.3262 61.0339 11.2925C59.0811 12.2537 57.9074 13.4275 57.4875 14.8238V19.4985ZM60.0929 10.1441C61.3881 8.48465 62.1115 6.79995 62.2481 5.10006C62.3139 4.35131 62.2886 3.66326 62.1672 3.04604C62.0559 2.42882 61.8383 1.92796 61.5146 1.54346C61.1857 1.15897 60.7354 0.976836 60.1486 0.976836H57.5026V9.21317L57.4875 14.1813C57.9225 13.1391 58.7978 11.7984 60.0929 10.1491" fill="#3F4141"/>
<path d="M74.1624 3.12193C74.1624 4.49296 73.0039 5.61104 71.5823 5.61104C70.1606 5.61104 69.0021 4.49296 69.0021 3.12193C69.0021 1.75089 70.1606 0.632812 71.5823 0.632812C73.0039 0.632812 74.1624 1.74077 74.1624 3.12193ZM69.2348 19.4479L69.25 7.03773C71.2281 7.42222 72.9078 6.94666 74.3142 5.5908V19.4529H69.2348V19.4479Z" fill="#3F4141"/>
<path d="M76.4037 19.4479L76.4189 2.02913C78.999 2.16067 80.6888 1.67499 81.4831 0.577148V19.4428H76.4037V19.4479Z" fill="#3F4141"/>
<path d="M83.9469 19.4479L83.9621 2.02913C86.5423 2.16067 88.232 1.67499 89.0263 0.577148V19.4428H83.9469V19.4479Z" fill="#3F4141"/>
<path d="M93.5441 6.79998C94.0754 6.3143 94.7432 5.99557 95.5779 5.84886C96.3975 5.70214 97.2829 5.63637 98.2391 5.65155C99.2104 5.66673 100.121 5.83368 100.996 6.15241C101.856 6.48125 102.565 6.95682 103.126 7.57403C103.688 8.20643 103.956 8.99566 103.971 9.93161L103.986 17.3484C103.971 17.662 103.986 17.9909 104.027 18.3248C104.052 18.6536 104.148 18.942 104.3 19.1798C104.452 19.4327 104.71 19.5491 105.064 19.5491H100.779C100.04 19.5643 99.5241 19.367 99.2357 18.9825C98.9473 18.598 98.8512 17.9403 98.9777 17.0195C98.1581 18.0465 97.2424 18.7599 96.2356 19.1393C95.2137 19.5339 94.2575 19.6402 93.3418 19.4682C92.4261 19.2961 91.7026 18.8611 91.1714 18.1932C90.6402 17.5204 90.4479 16.6249 90.5997 15.5169C90.7515 14.6366 91.0905 13.9486 91.6115 13.4477C92.1276 12.9469 92.7448 12.5674 93.4531 12.2892C94.1513 12.0109 94.8697 11.7883 95.5982 11.6163C96.4734 11.4038 97.2222 11.1408 97.8647 10.8372C98.492 10.5337 98.8613 10.048 98.9676 9.4004C99.1295 7.72581 98.6134 6.72409 97.4245 6.41042C96.2255 6.10687 95.2542 6.14735 94.5155 6.55714C95.2693 6.50655 95.8663 6.68868 96.3469 7.12377C96.8225 7.55886 97.0552 8.07489 97.0552 8.66682C97.0552 9.25874 96.8377 9.77478 96.3975 10.1795C95.9624 10.5994 95.4312 10.8119 94.814 10.8119C94.1968 10.8119 93.6807 10.5994 93.2457 10.1795C92.8106 9.76972 92.593 9.25874 92.593 8.66682C92.593 8.38856 92.6335 8.14066 92.7296 7.90288C92.8662 7.53356 93.1394 7.16424 93.5492 6.79492M98.5325 10.7057C98.2998 10.9181 98.0418 11.1408 97.7433 11.3634C97.2373 11.7175 96.7466 12.1678 96.2963 12.6787C95.8461 13.2049 95.5729 13.8778 95.5071 14.7075C95.4919 15.5776 95.6842 16.2758 96.0788 16.7919C96.4582 17.318 96.9237 17.5963 97.4701 17.6216C98.0165 17.6469 98.5224 17.3433 98.9828 16.7261L98.9676 10.0581C98.9018 10.2807 98.75 10.5084 98.5325 10.7057Z" fill="#3F4141"/>
<path d="M114.408 6.46573C113.751 6.63774 113.25 6.95141 112.906 7.42697C112.182 8.40339 111.691 9.75925 111.459 11.4996L111.444 19.5741H106.364L106.379 6.91094C108.661 7.12342 110.351 6.72881 111.454 5.71191V9.67831C111.656 8.626 112.066 7.74064 112.693 7.01718C113.376 6.25325 114.277 5.86875 115.38 5.88393C116.498 5.88393 117.358 6.12171 118 6.59727C118.628 7.07283 118.956 7.73053 118.972 8.57541C118.972 9.16733 118.754 9.68337 118.319 10.0881C117.884 10.508 117.363 10.7205 116.751 10.7205C116.138 10.7205 115.602 10.508 115.167 10.0881C114.732 9.67831 114.514 9.16733 114.514 8.57541C114.499 7.61416 114.909 6.98177 115.744 6.66304C115.511 6.34937 115.061 6.27854 114.408 6.46573Z" fill="#3F4141"/>
<path d="M57.6999 41.5161L52.8937 41.5312H52.6761L52.6913 22.6504H60.7961C62.1216 22.6504 63.2802 22.7971 64.292 23.0703C65.3038 23.3486 66.1892 23.9253 66.9531 24.8107C67.6361 25.6151 67.8537 26.6573 67.6209 27.9069C67.3882 29.1565 66.7457 30.1329 65.7238 30.8311C64.6866 31.5292 63.1992 32.3488 61.2464 33.3101C59.2935 34.2713 58.1198 35.445 57.6999 36.8414V41.5161ZM60.3054 32.1616C61.6005 30.5022 62.324 28.8175 62.4606 27.1126C62.5264 26.3638 62.5011 25.6758 62.3796 25.0586C62.2683 24.4413 62.0508 23.9405 61.7219 23.556C61.3931 23.1715 60.9428 22.9894 60.356 22.9894H57.71V31.2206L57.6948 36.1887C58.1299 35.1466 59.0052 33.8059 60.3003 32.1566" fill="#3F4141"/>
<path d="M69.179 28.8174C69.7103 28.3317 70.3781 28.013 71.2128 27.8713C72.0324 27.7246 72.9178 27.6588 73.874 27.674C74.8403 27.6892 75.756 27.8561 76.6312 28.1749C77.4913 28.5037 78.1995 28.9793 78.7611 29.5965C79.3227 30.2289 79.5959 31.0181 79.606 31.9541L79.6212 39.3708C79.606 39.6845 79.6212 40.0133 79.6617 40.3472C79.6869 40.6761 79.7831 40.9645 79.9348 41.2022C80.0866 41.4501 80.3446 41.5716 80.6988 41.5716H76.4137C75.675 41.5867 75.159 41.3844 74.8706 41.0049C74.5822 40.6204 74.4861 39.9627 74.6126 39.042C73.793 40.069 72.8773 40.7823 71.8705 41.1618C70.8486 41.5564 69.8924 41.6626 68.9767 41.4906C68.061 41.3186 67.3375 40.8835 66.8063 40.2106C66.2751 39.5378 66.0828 38.6423 66.2346 37.5343C66.3864 36.654 66.7253 35.966 67.2464 35.4651C67.7625 34.9643 68.3797 34.5848 69.088 34.3066C69.7861 34.0283 70.5045 33.8057 71.2331 33.6337C72.1083 33.4212 72.8571 33.1582 73.4996 32.8546C74.1269 32.5511 74.4962 32.0654 74.6025 31.4178C74.7644 29.7432 74.2483 28.7415 73.0594 28.4278C71.8604 28.1243 70.889 28.1647 70.1504 28.5745C70.9042 28.5189 71.5012 28.7061 71.9818 29.1412C72.4574 29.5763 72.6901 30.0923 72.6901 30.6842C72.6901 31.2761 72.4726 31.7922 72.0375 32.202C71.6024 32.6219 71.0661 32.8344 70.4539 32.8344C69.8418 32.8344 69.3207 32.6219 68.8856 32.202C68.4505 31.7922 68.233 31.2812 68.233 30.6842C68.233 30.406 68.2734 30.1581 68.3696 29.9203C68.5062 29.551 68.7794 29.1816 69.1892 28.8123M74.1724 32.7231C73.9397 32.9356 73.6817 33.1582 73.3832 33.3808C72.8773 33.7349 72.3866 34.1852 71.9363 34.6961C71.486 35.2223 71.2128 35.8952 71.1471 36.7249C71.1319 37.595 71.3241 38.2932 71.7187 38.8042C72.0982 39.3303 72.5636 39.6086 73.11 39.6339C73.6564 39.6592 74.1623 39.3556 74.6278 38.7384L74.6126 32.0704C74.5468 32.293 74.395 32.5156 74.1775 32.7129" fill="#3F4141"/>
<path d="M90.0432 28.488C89.3906 28.66 88.8847 28.9737 88.5407 29.4493C87.8172 30.4257 87.3265 31.7815 87.0937 33.5219L87.0786 41.5963H81.9991L82.0143 28.9383C84.291 29.1508 85.9858 28.7562 87.0887 27.7393V31.7056C87.291 30.6533 87.7008 29.768 88.3282 29.0445C89.0112 28.2806 89.9117 27.8961 91.0146 27.9113C92.1327 27.9113 92.9927 28.1491 93.6352 28.6246C94.2626 29.1002 94.5914 29.7579 94.6066 30.5977C94.6066 31.1896 94.3891 31.7056 93.954 32.1154C93.5189 32.5354 92.9978 32.7478 92.3856 32.7478C91.7735 32.7478 91.2372 32.5354 90.8021 32.1154C90.367 31.7056 90.1495 31.1947 90.1495 30.5977C90.1343 29.6364 90.5441 29.0041 91.3789 28.6904C91.1461 28.3767 90.6959 28.3059 90.0432 28.4931" fill="#3F4141"/>
<path d="M101.042 41.5413H95.9675V23.9658C98.573 24.0821 100.268 23.6521 101.042 22.6504V31.848C101.371 30.568 101.927 29.5966 102.722 28.8985C103.637 28.0941 104.604 27.75 105.656 27.8563C106.597 27.9473 107.416 28.3723 108.069 29.1059C108.494 29.5258 108.696 30.0165 108.696 30.5933C108.696 31.17 108.479 31.7013 108.044 32.1212C107.609 32.5411 107.072 32.7536 106.46 32.7536C105.848 32.7536 105.327 32.5411 104.892 32.1212C104.457 31.7013 104.239 31.1852 104.239 30.5933C104.239 30.0014 104.457 29.5005 104.892 29.0806C105.246 28.7366 105.727 28.5292 106.339 28.4482C105.261 28.1194 104.386 28.1598 103.718 28.5696C103.035 28.9794 102.438 29.6371 101.902 30.5478C101.517 31.2055 101.234 31.9846 101.042 32.8547V33.8565H105.954L109.992 41.5515H104.917L101.042 34.1752V41.5515V41.5413Z" fill="#3F4141"/>
<path d="M46.2561 0H45.2695V55.9292H46.2561V0Z" fill="#789868"/>
<path d="M17.439 15.8706C10.2196 21.1979 2.44869 19.7207 2.44869 19.7207C1.21932 20.09 -0.00500488 19.1287 -0.00500488 17.7982V1.41657C5.42914e-05 0.637456 0.612214 0 1.36097 0H24.2335C30.2236 0.445207 26.3381 9.29876 17.434 15.8656" fill="#789868"/>
<path d="M16.8976 55.8891H1.61388C0.723462 55.8891 0 55.1403 0 54.2094V24.674C0 23.8038 0.677929 23.1006 1.51269 23.1006C1.51269 23.1006 10.0576 23.4244 15.2382 32.885C17.8488 37.6457 18.3395 49.8383 18.4306 54.26C18.4508 55.1555 17.7577 55.8891 16.8976 55.8891Z" fill="#789868"/>
<path d="M21.6229 39.0013C20.0394 38.9557 18.724 37.7162 18.5115 36.077C18.0461 32.4547 17.5098 26.0042 18.9112 22.3009C22.0175 14.0646 28.3769 9.48603 31.6451 7.58378C32.8492 6.88561 34.3619 7.13857 35.2827 8.20606C37.3974 10.6446 40.8124 15.4457 40.3874 20.5808C38.9759 37.529 27.0767 39.1631 21.6229 39.0013Z" fill="#789868"/>
<path d="M54.9173 52.8585C54.9173 52.8585 54.8819 52.8585 54.8617 52.8585C54.806 52.8585 54.7504 52.8534 54.6947 52.8433C54.5328 52.8281 54.3811 52.8028 54.2343 52.7674C53.7841 52.6511 53.4451 52.4537 53.2174 52.1704C53.2326 52.5903 53.3035 52.9394 53.435 53.2076C53.5665 53.4706 53.774 53.6882 54.0522 53.8602C55.0438 54.3459 55.8128 54.8012 56.3541 55.2262C56.5211 55.3628 56.6627 55.4842 56.769 55.5955C56.8044 55.636 56.8348 55.6714 56.855 55.7017C56.8601 55.7119 56.8702 55.722 56.8752 55.727H56.8853V55.7422L56.9815 55.894H55.5295L55.4991 55.8434V55.8333L55.489 55.8232C55.4789 55.808 55.4688 55.7928 55.4587 55.7776C55.4283 55.727 55.3929 55.6815 55.3474 55.6309C55.2209 55.464 55.064 55.3021 54.887 55.1553C54.3203 54.6899 53.6171 54.4116 52.7824 54.3256C52.6356 54.3105 52.4535 54.3459 52.2309 54.4369C52.0285 54.5229 51.8565 54.6191 51.7199 54.7354L51.6036 54.8316L51.4619 54.3863L51.4973 54.3358C51.7553 54.0322 52.1651 53.8349 52.7115 53.754C52.6407 53.6781 52.58 53.5921 52.5193 53.501C52.4434 53.3897 52.3827 53.2683 52.327 53.1367C52.1854 52.8129 52.1044 52.4588 52.0943 52.0692V50.0051C52.0943 49.2867 52.3473 48.6998 52.8532 48.2445C53.3591 47.7892 54.0117 47.5615 54.8161 47.5615C55.2462 47.5615 55.6509 47.6273 56.0405 47.7639C56.425 47.9005 56.7386 48.0877 56.9865 48.3255C57.2547 48.5835 57.4419 48.8567 57.543 49.14C57.6392 49.4284 57.6898 49.8381 57.6999 50.3694C57.6999 50.4908 57.6948 50.6122 57.6847 50.7387C57.6645 50.8905 57.6341 51.0422 57.5936 51.1839C57.4924 51.5583 57.3103 51.877 57.0523 52.13C56.5767 52.6207 55.8786 52.8635 54.9679 52.8686H54.9274L54.9173 52.8585ZM53.2377 50.4402C53.2377 50.7741 53.2427 51.0018 53.2579 51.1232C53.2832 51.3154 53.3439 51.4874 53.4451 51.6493C53.7335 52.13 54.1837 52.3728 54.7959 52.3728C55.4081 52.3728 55.833 52.1907 56.1417 51.8264C56.2985 51.6342 56.4098 51.4267 56.4654 51.2092C56.5261 50.9916 56.5565 50.6931 56.5565 50.3137C56.5565 49.5599 56.4553 49.0186 56.253 48.6998C55.9393 48.2091 55.4587 47.9663 54.8212 47.9663C54.2647 47.9663 53.865 48.1484 53.6171 48.5177C53.3692 48.887 53.2427 49.4739 53.2427 50.2884V50.4351L53.2377 50.4402Z" fill="#789868"/>
<path d="M64.1301 48.3412C64.3527 48.5435 64.5247 48.8167 64.6461 49.1557C64.7574 49.4592 64.8131 49.7577 64.8131 50.0562V53.3801C64.8131 53.4105 64.8131 53.8658 64.808 54.741C64.808 55.0041 64.7473 55.2469 64.6309 55.4695C64.5905 55.5505 64.5399 55.6264 64.4893 55.7023C64.4691 55.7276 64.4438 55.7529 64.4235 55.7832L64.3982 55.8186L64.3729 55.8389L64.3375 55.8793L64.2717 55.8945H62.9159V55.6264L62.9766 55.596C63.3206 55.4442 63.523 55.1862 63.5989 54.827C63.5989 54.8169 63.6039 54.7866 63.6039 54.7309V54.4122C63.6039 54.3413 63.609 54.2806 63.609 54.2199V49.9297C63.609 49.8437 63.609 49.7476 63.6039 49.6313C63.5938 49.4997 63.5736 49.3682 63.5533 49.2417C63.4926 48.9179 63.4066 48.6852 63.2953 48.5385C62.9867 48.159 62.5112 47.9668 61.8737 47.9668C61.1856 47.9668 60.6797 48.2046 60.3661 48.6751C60.1688 48.9786 60.0726 49.4086 60.0827 49.9753V50.0815H60.0777V54.4476C60.0777 54.5791 60.0827 54.6803 60.0878 54.7461C60.0878 54.7714 60.0878 54.7916 60.0878 54.8068V54.8169L60.0929 54.827C60.1688 55.1913 60.3762 55.4442 60.7151 55.596L60.7759 55.6264V55.8945H59.3643L59.3289 55.854L59.3036 55.8287L59.2783 55.7933C59.253 55.763 59.2277 55.7326 59.2075 55.7073C59.1519 55.6314 59.1013 55.5555 59.0608 55.4746C58.9444 55.252 58.8837 55.0041 58.8837 54.741V52.8287C58.8837 52.343 58.8787 51.9231 58.8787 51.579C58.8787 50.6228 58.8787 50.0866 58.8837 49.9753C58.8837 49.6464 58.9546 49.3378 59.0912 49.0444C59.2277 48.7459 59.4149 48.498 59.6527 48.2956C60.2396 47.7948 60.9833 47.5469 61.8788 47.5469C62.7742 47.5469 63.5432 47.81 64.125 48.3412" fill="#789868"/>
<path d="M72.1437 47.5463C72.9127 47.5463 73.4895 47.8296 73.8841 48.3962C74.1826 48.8313 74.3293 49.3321 74.3293 49.9038C74.3293 50.091 74.2939 50.3339 74.2129 50.6323C74.1269 50.9663 74.0258 51.2445 73.8993 51.457L73.8841 51.4924L72.7711 51.9376L72.8874 51.6998C72.9633 51.5531 73.0291 51.285 73.0898 50.8904C73.1505 50.5109 73.1809 50.1922 73.1809 49.9291C73.1809 49.7369 73.1707 49.5547 73.1556 49.3726C73.1303 49.1247 73.0847 48.9072 73.024 48.72C72.8571 48.209 72.5788 47.956 72.1943 47.956H72.1589C71.7947 47.9712 71.5113 48.1028 71.309 48.3507C71.1066 48.5986 70.9751 48.9831 70.9194 49.494C70.9042 49.6964 70.8992 49.9544 70.9042 50.2681C70.9093 50.5818 70.9245 50.7689 70.9498 50.8195C70.97 50.855 71.0155 50.8853 71.0813 50.9106C71.1572 50.946 71.2331 50.9612 71.314 50.9663H71.4051V51.2293L71.314 51.2394C71.1977 51.2496 71.0257 51.29 70.798 51.3508C70.6968 51.376 70.545 51.4216 70.3528 51.4873C70.2921 51.5076 70.2263 51.5278 70.1605 51.5481C70.1403 51.5531 70.1251 51.5632 70.1049 51.5683H70.0897L70.0846 51.5734L69.948 51.6239V50.6121C69.948 50 69.948 49.5851 69.948 49.3726C69.9531 49.0134 69.8671 48.6997 69.685 48.4367C69.4776 48.1382 69.1841 47.9813 68.8148 47.956C68.6731 47.951 68.5315 47.9712 68.3797 48.0269C68.2026 48.0926 68.0509 48.1938 67.9294 48.3254C67.6866 48.5935 67.5854 48.9578 67.6259 49.4131V51.3811C67.6512 52.1906 67.7119 52.7218 67.808 52.9798C67.9497 53.3592 68.2684 53.6476 68.7541 53.8449C69.771 54.0675 70.7019 54.4419 71.5518 54.9579C71.825 55.1249 72.0729 55.2918 72.2955 55.4689C72.3663 55.5246 72.4321 55.5802 72.4928 55.6359C72.5131 55.6561 72.5282 55.6713 72.5485 55.6865C72.5485 55.6865 72.5586 55.6915 72.5636 55.6966H72.5687V55.7067L72.7508 55.8838H70.9599L70.9245 55.8433H70.9194L70.9144 55.8281C70.9042 55.8129 70.8941 55.8028 70.8789 55.7876C70.8385 55.7421 70.7929 55.6915 70.7373 55.646C70.5754 55.4942 70.3831 55.3475 70.1605 55.2109C69.4522 54.7758 68.5871 54.5026 67.5702 54.3913C67.3881 54.3711 67.1554 54.4014 66.8822 54.4925C66.6343 54.5684 66.4167 54.6696 66.2397 54.7859L66.1385 54.8517L65.9614 54.4318L66.0171 54.3812C66.2903 54.1282 66.7152 53.9512 67.3021 53.855C66.9631 53.5717 66.7254 53.1872 66.5837 52.6914C66.5382 52.5346 66.5078 52.3727 66.4926 52.2007C66.4876 52.14 66.4825 52.0843 66.4775 52.0287V49.5294C66.4775 48.8161 66.7709 48.2798 67.3578 47.9206C67.5753 47.784 67.8181 47.6829 68.0913 47.6171C68.3089 47.5614 68.5163 47.5361 68.7035 47.5361H68.7541C69.5484 47.5361 70.1352 47.779 70.5096 48.2697C70.9346 47.779 71.481 47.5361 72.1488 47.5361" fill="#789868"/>
<path d="M81.7815 47.5762C82.3482 47.5812 82.8591 47.7836 83.3094 48.1732C83.8659 48.6588 84.1492 49.3216 84.1492 50.1614V54.8108C84.1391 55.0182 84.0835 55.2358 83.9823 55.4482C83.9469 55.5292 83.9013 55.6101 83.8507 55.6911C83.8305 55.7214 83.8153 55.7518 83.7951 55.7822L83.7698 55.8277L83.7445 55.8682L83.7192 55.9137L83.6534 55.9238H82.3937V55.6557L82.4645 55.6354C82.6112 55.5899 82.7428 55.4786 82.8541 55.3066C82.9654 55.1245 83.0261 54.9474 83.0261 54.7602V50.1665C83.0059 49.357 82.8187 48.7853 82.4595 48.4413C82.3279 48.3148 82.1761 48.2288 82.0041 48.1732C81.8777 48.1327 81.7512 48.1124 81.6196 48.1124C81.2908 48.1124 81.0024 48.2339 80.7596 48.4767C80.6331 48.6082 80.5319 48.7499 80.456 48.9169C80.3903 49.0636 80.3548 49.1799 80.3548 49.271V51.6083C80.3548 51.9372 80.3548 52.1901 80.365 52.3672C80.365 52.5038 80.37 52.5898 80.3751 52.6252C80.4358 53.03 80.5876 53.2677 80.8355 53.3335L80.9113 53.3537V53.6118L80.795 53.6016C80.6533 53.5814 80.537 53.5764 80.4408 53.5764H79.2014C79.1103 53.5764 78.9838 53.5865 78.8067 53.6016L78.6904 53.6118V53.3537L78.7612 53.3335C78.9939 53.2627 79.1406 53.0603 79.2064 52.7214C79.2266 52.5848 79.2418 52.2812 79.2418 51.8006V49.271C79.2418 49.271 79.2418 49.2457 79.2368 49.2255C79.2368 49.2052 79.2368 49.1799 79.2267 49.1546C79.2165 49.0838 79.1963 49.018 79.171 48.9472C79.1002 48.7499 78.999 48.5829 78.8624 48.4464C78.6347 48.2237 78.3362 48.1124 77.9619 48.1124C77.6229 48.1124 77.3295 48.2339 77.0866 48.4767C76.7325 48.8308 76.5605 49.3924 76.5756 50.1614V54.7602C76.5756 54.9423 76.6313 55.1245 76.7477 55.3066C76.859 55.4837 76.9854 55.595 77.1322 55.6354L77.208 55.6557V55.9238H75.8876L75.8623 55.8783L75.8319 55.8327L75.8066 55.7923C75.7864 55.7569 75.7662 55.7214 75.7459 55.6911C75.6953 55.6051 75.6498 55.5241 75.6144 55.4432C75.5183 55.2256 75.4576 55.0132 75.4424 54.8108V50.1563C75.4424 49.2508 75.7358 48.5627 76.3227 48.0973C76.5453 47.9151 76.8033 47.7836 77.0917 47.6925C77.3396 47.6166 77.5774 47.5762 77.8101 47.5762C78.2452 47.5762 78.6448 47.6571 78.999 47.819C79.3531 47.9809 79.6263 48.1984 79.8085 48.4716C80.2688 47.8747 80.9164 47.5762 81.7512 47.5762H81.7866H81.7815Z" fill="#789868"/>
<path d="M89.7295 47.9567C90.0179 48.1186 90.2658 48.326 90.4631 48.5789C90.7009 48.8876 90.8223 49.2063 90.8223 49.5351V53.456C90.8223 54.2149 90.5238 54.8169 89.9319 55.2722C89.3905 55.682 88.7379 55.8895 87.974 55.8895C87.5439 55.8895 87.1392 55.8237 86.7598 55.6871C86.3753 55.5555 86.0565 55.3684 85.8137 55.1306C85.3432 54.6753 85.1105 54.0327 85.1105 53.203C85.1105 52.9855 85.1459 52.7477 85.2218 52.4947C85.3128 52.176 85.4494 51.8876 85.6366 51.6347C86.1274 50.9517 86.861 50.6077 87.8323 50.6026C88.2775 50.6026 88.6772 50.6987 89.0263 50.8859C89.2894 51.0225 89.5069 51.2047 89.684 51.4323V49.3834V49.3429C89.684 49.3125 89.684 49.2822 89.6789 49.2518C89.6688 49.1506 89.6435 49.0494 89.6131 48.9483C89.512 48.6346 89.3399 48.4019 89.0819 48.2602C88.7379 48.068 88.3838 47.9668 88.0246 47.9668C87.5389 47.9668 87.119 48.068 86.7648 48.2754C86.355 48.5132 86.1274 48.8521 86.0818 49.2822L86.0717 49.3783H85.8542L85.4646 48.073L85.5405 48.0326C85.8795 47.8757 86.2538 47.7543 86.6687 47.6683C87.0785 47.5873 87.4933 47.5469 87.9031 47.5469C88.6215 47.5469 89.2337 47.6835 89.7346 47.9567M89.689 53.1676C89.689 52.6162 89.5727 52.1457 89.3399 51.746C89.0516 51.2704 88.6013 51.0326 87.9841 51.0326C87.4225 51.0326 86.9773 51.235 86.6434 51.6347C86.4866 51.8269 86.3753 52.0293 86.3196 52.2468C86.2589 52.4644 86.2336 52.7629 86.2336 53.1373C86.2336 53.8911 86.3348 54.4324 86.5372 54.7511C86.8407 55.2166 87.3163 55.4493 87.9638 55.4493C88.5457 55.4493 88.9757 55.2621 89.259 54.8928C89.5474 54.5184 89.689 53.9417 89.689 53.1676Z" fill="#789868"/>
<path d="M97.6066 48.3412C97.8241 48.5435 98.0012 48.8167 98.1226 49.1557C98.2339 49.4592 98.2896 49.7577 98.2896 50.0562V53.3801C98.2896 53.4105 98.2896 53.8658 98.2845 54.741C98.2845 55.0041 98.2238 55.2469 98.1075 55.4695C98.067 55.5505 98.0214 55.6264 97.9658 55.7023C97.9456 55.7276 97.9203 55.7529 97.9 55.7832L97.8747 55.8186L97.8494 55.8389L97.814 55.8793L97.7483 55.8945H96.3924V55.6264L96.4531 55.596C96.7971 55.4442 96.9995 55.1862 97.0754 54.827C97.0754 54.8169 97.0804 54.7866 97.0804 54.7309V54.4122C97.0804 54.3413 97.0855 54.2806 97.0855 54.2199V49.9297C97.0855 49.8437 97.0855 49.7476 97.0804 49.6313C97.0703 49.4997 97.0551 49.3682 97.0298 49.2417C96.9691 48.9179 96.8831 48.6852 96.7718 48.5385C96.4632 48.159 95.9927 47.9668 95.3502 47.9668C94.6622 47.9668 94.1562 48.2046 93.8426 48.6751C93.6453 48.9786 93.5491 49.4086 93.5593 49.9753V50.0815H93.5542V54.4476C93.5542 54.5791 93.5593 54.6803 93.5643 54.7461C93.5643 54.7714 93.5694 54.7916 93.5694 54.8068V54.8169L93.5744 54.827C93.6503 55.1913 93.8577 55.4442 94.1967 55.596L94.2574 55.6264V55.8945H92.8459L92.8105 55.854L92.7852 55.8287L92.7599 55.7933C92.7346 55.763 92.7093 55.7326 92.6891 55.7073C92.6334 55.6314 92.5828 55.5555 92.5424 55.4746C92.426 55.252 92.3653 55.0041 92.3653 54.741V52.8287C92.3653 52.343 92.3602 51.9231 92.3602 51.579C92.3602 50.6228 92.3602 50.0866 92.3653 49.9753C92.3653 49.6464 92.4412 49.3378 92.5727 49.0444C92.7093 48.7459 92.8965 48.498 93.1343 48.2956C93.7211 47.7948 94.4648 47.5469 95.3603 47.5469C96.2558 47.5469 97.0248 47.81 97.6066 48.3412Z" fill="#789868"/>
<path d="M105.585 52.0083L104.993 51.6289C104.963 51.6036 104.912 51.5631 104.836 51.5024C104.76 51.4417 104.684 51.3607 104.604 51.2545C104.497 51.128 104.396 50.9661 104.305 50.7789C104.214 50.6018 104.174 50.3944 104.174 50.1566C104.174 50.0807 104.184 49.9998 104.194 49.9087C104.209 49.8278 104.229 49.7468 104.249 49.6608C104.366 49.337 104.588 49.0386 104.927 48.7704C105.256 48.5124 105.732 48.3809 106.349 48.3809C107.002 48.3809 107.518 48.5326 107.897 48.8311C108.266 49.1397 108.449 49.4888 108.449 49.8784C108.449 50.2679 108.322 50.612 108.074 50.87C107.826 51.1331 107.472 51.3607 107.007 51.5479L107.558 51.9122C107.594 51.9324 107.629 51.9577 107.659 51.9779C107.69 51.9982 107.725 52.0235 107.76 52.0437C108.206 52.3827 108.484 52.7115 108.595 53.0201C108.707 53.3237 108.762 53.5716 108.762 53.7638C108.762 54.4468 108.524 54.9881 108.054 55.3878C107.578 55.7824 107.057 55.9899 106.491 56.005H106.42C105.6 56.005 104.973 55.8077 104.538 55.4081C104.103 55.0134 103.885 54.5581 103.885 54.032C103.885 53.5463 104.062 53.1365 104.416 52.8178C104.76 52.494 105.15 52.2258 105.59 52.0133M107.108 52.9847L105.878 52.1854C105.681 52.2916 105.524 52.413 105.393 52.5446C105.266 52.6862 105.16 52.8329 105.079 52.9746C104.968 53.1871 104.892 53.3894 104.867 53.5766C104.826 53.7739 104.801 53.9156 104.796 54.0067V54.0522C104.796 54.0522 104.786 54.0826 104.786 54.0977V54.2444C104.786 54.2444 104.786 54.2748 104.796 54.29V54.376C104.836 54.8566 105.013 55.2158 105.332 55.4485C105.641 55.6863 105.995 55.8077 106.4 55.8077C106.865 55.8077 107.229 55.6661 107.497 55.3828C107.755 55.0944 107.882 54.7757 107.882 54.4165C107.882 54.3153 107.872 54.1939 107.846 54.0573C107.826 53.9207 107.781 53.7841 107.71 53.6373C107.649 53.526 107.578 53.4097 107.482 53.3034C107.381 53.1921 107.26 53.0808 107.108 52.9847ZM105.742 50.7536L106.739 51.386C106.926 51.2949 107.077 51.1938 107.189 51.0825C107.3 50.9712 107.391 50.8599 107.462 50.7435C107.548 50.5917 107.599 50.445 107.624 50.3033C107.639 50.1617 107.644 50.0504 107.644 49.9694C107.644 49.5394 107.523 49.2055 107.28 48.9627C107.037 48.7198 106.723 48.6035 106.344 48.6035C105.878 48.6035 105.539 48.7046 105.332 48.907C105.109 49.1144 105.003 49.3472 105.003 49.5951C105.003 49.843 105.059 50.0504 105.175 50.2072C105.292 50.3742 105.413 50.5057 105.55 50.6069C105.58 50.6373 105.61 50.6625 105.651 50.6878C105.686 50.7081 105.722 50.7334 105.752 50.7536" fill="#789868"/>
</g>
<defs>
<clipPath id="clip0_2043_1224">
<rect width="118.982" height="56" fill="white"/>
</clipPath>
</defs>
</svg>
