<svg width="16" height="16" viewBox="0 0 16 16" fill="none" xmlns="http://www.w3.org/2000/svg">
<path d="M6.21665 11.3333C4.70277 11.3333 3.42152 10.809 2.3729 9.76042C1.32429 8.71181 0.799988 7.43056 0.799988 5.91667C0.799988 4.40278 1.32429 3.12153 2.3729 2.07292C3.42152 1.02431 4.70277 0.5 6.21665 0.5C7.73054 0.5 9.01179 1.02431 10.0604 2.07292C11.109 3.12153 11.6333 4.40278 11.6333 5.91667C11.6333 6.52778 11.5361 7.10417 11.3417 7.64583C11.1472 8.1875 10.8833 8.66667 10.55 9.08333L15.2167 13.75C15.3694 13.9028 15.4458 14.0972 15.4458 14.3333C15.4458 14.5694 15.3694 14.7639 15.2167 14.9167C15.0639 15.0694 14.8694 15.1458 14.6333 15.1458C14.3972 15.1458 14.2028 15.0694 14.05 14.9167L9.38332 10.25C8.96665 10.5833 8.48749 10.8472 7.94582 11.0417C7.40415 11.2361 6.82777 11.3333 6.21665 11.3333ZM6.21665 9.66667C7.25832 9.66667 8.14374 9.30208 8.8729 8.57292C9.60207 7.84375 9.96665 6.95833 9.96665 5.91667C9.96665 4.875 9.60207 3.98958 8.8729 3.26042C8.14374 2.53125 7.25832 2.16667 6.21665 2.16667C5.17499 2.16667 4.28957 2.53125 3.5604 3.26042C2.83124 3.98958 2.46665 4.875 2.46665 5.91667C2.46665 6.95833 2.83124 7.84375 3.5604 8.57292C4.28957 9.30208 5.17499 9.66667 6.21665 9.66667Z" fill="white"/>
</svg>
