<svg width="20" height="20" viewBox="0 0 20 20" fill="none" xmlns="http://www.w3.org/2000/svg">
<path d="M17.9797 2.02031C17.7833 1.82389 17.5381 1.68336 17.2694 1.61319C17.0007 1.54302 16.7181 1.54575 16.4508 1.6211L16.4336 1.62656L1.4406 6.17188C1.13653 6.26007 0.866418 6.43856 0.666054 6.6837C0.465689 6.92884 0.344522 7.22906 0.318601 7.5446C0.29268 7.86015 0.363228 8.17612 0.520901 8.45067C0.678574 8.72522 0.915932 8.9454 1.20154 9.08203L7.73435 12.2656L10.9148 18.8008C11.0402 19.0675 11.2392 19.2928 11.4883 19.4503C11.7374 19.6078 12.0263 19.6909 12.3211 19.6898C12.3656 19.6898 12.4109 19.6898 12.4562 19.6844C12.7726 19.66 13.0739 19.5391 13.3193 19.3378C13.5646 19.1366 13.7423 18.8649 13.8281 18.5594L18.3734 3.56641C18.3757 3.56084 18.3775 3.55509 18.3789 3.54922C18.4542 3.28189 18.457 2.99931 18.3868 2.73058C18.3166 2.46185 18.1761 2.21668 17.9797 2.02031ZM12.2586 17.2711L9.57341 11.7523L13.1672 8.1625C13.2544 8.0753 13.3235 7.97177 13.3707 7.85783C13.4179 7.74389 13.4422 7.62177 13.4422 7.49844C13.4422 7.37511 13.4179 7.25299 13.3707 7.13905C13.3235 7.02511 13.2544 6.92158 13.1672 6.83438C13.08 6.74717 12.9764 6.678 12.8625 6.6308C12.7485 6.5836 12.6264 6.55931 12.5031 6.55931C12.3798 6.55931 12.2577 6.5836 12.1437 6.6308C12.0298 6.678 11.9262 6.74717 11.839 6.83438L8.24529 10.4281L2.72888 7.74141L16.4062 3.59375L12.2586 17.2711Z" fill="white"/>
</svg>
