<svg width="17" height="20" viewBox="0 0 17 20" fill="none" xmlns="http://www.w3.org/2000/svg">
<path d="M12.75 12.1875C11.9128 12.1861 11.1042 12.4919 10.4774 13.0469L7.28909 11C7.48699 10.348 7.48699 9.65196 7.28909 8.99998L10.4774 6.9531C11.098 7.49849 11.8948 7.80112 12.721 7.80519C13.5471 7.80925 14.3469 7.51448 14.9728 6.97522C15.5988 6.43597 16.0086 5.68859 16.1268 4.87091C16.245 4.05323 16.0636 3.22039 15.616 2.52595C15.1684 1.83151 14.4849 1.32231 13.6914 1.09224C12.8979 0.862169 12.0479 0.926746 11.2983 1.27406C10.5487 1.62138 9.94991 2.22801 9.61238 2.9821C9.27486 3.73619 9.22136 4.58688 9.46175 5.37732L6.27268 7.42185C5.77676 6.98357 5.16485 6.69778 4.51045 6.5988C3.85606 6.49981 3.187 6.59184 2.58363 6.86384C1.98027 7.13583 1.46825 7.57622 1.10907 8.13212C0.749899 8.68802 0.558838 9.33579 0.558838 9.99763C0.558838 10.6595 0.749899 11.3072 1.10907 11.8631C1.46825 12.419 1.98027 12.8594 2.58363 13.1314C3.187 13.4034 3.85606 13.4955 4.51045 13.3965C5.16485 13.2975 5.77676 13.0117 6.27268 12.5734L9.46097 14.625C9.2506 15.3168 9.26378 16.0574 9.49862 16.7413C9.73347 17.4253 10.178 18.0177 10.769 18.4344C11.36 18.8511 12.0674 19.0708 12.7905 19.0622C13.5136 19.0537 14.2155 18.8173 14.7965 18.3867C15.3775 17.9562 15.8079 17.3534 16.0265 16.6641C16.2451 15.9748 16.2407 15.2341 16.014 14.5474C15.7873 13.8607 15.3499 13.263 14.7639 12.8393C14.1779 12.4156 13.4732 12.1875 12.75 12.1875ZM12.75 2.81248C13.0591 2.81248 13.3612 2.90411 13.6181 3.0758C13.8751 3.24749 14.0753 3.49152 14.1936 3.77703C14.3119 4.06254 14.3428 4.37671 14.2825 4.6798C14.2222 4.9829 14.0734 5.26131 13.8549 5.47983C13.6364 5.69835 13.358 5.84716 13.0549 5.90745C12.7518 5.96774 12.4376 5.9368 12.1521 5.81854C11.8666 5.70028 11.6225 5.50001 11.4509 5.24305C11.2792 4.9861 11.1875 4.68401 11.1875 4.37498C11.1875 3.96058 11.3521 3.56315 11.6452 3.27012C11.9382 2.9771 12.3356 2.81248 12.75 2.81248ZM4.00003 11.5625C3.691 11.5625 3.3889 11.4708 3.13195 11.2991C2.875 11.1275 2.67473 10.8834 2.55647 10.5979C2.43821 10.3124 2.40726 9.99824 2.46755 9.69515C2.52784 9.39205 2.67666 9.11364 2.89517 8.89512C3.11369 8.6766 3.39211 8.52779 3.6952 8.4675C3.9983 8.40721 4.31246 8.43815 4.59797 8.55641C4.88348 8.67468 5.12751 8.87495 5.2992 9.1319C5.47089 9.38885 5.56253 9.69094 5.56253 9.99998C5.56253 10.4144 5.39791 10.8118 5.10488 11.1048C4.81186 11.3979 4.41443 11.5625 4.00003 11.5625ZM12.75 17.1875C12.441 17.1875 12.1389 17.0958 11.882 16.9241C11.625 16.7525 11.4247 16.5084 11.3065 16.2229C11.1882 15.9374 11.1573 15.6232 11.2176 15.3201C11.2778 15.0171 11.4267 14.7386 11.6452 14.5201C11.8637 14.3016 12.1421 14.1528 12.4452 14.0925C12.7483 14.0322 13.0625 14.0632 13.348 14.1814C13.6335 14.2997 13.8775 14.4999 14.0492 14.7569C14.2209 15.0138 14.3125 15.3159 14.3125 15.625C14.3125 16.0394 14.1479 16.4368 13.8549 16.7298C13.5619 17.0229 13.1644 17.1875 12.75 17.1875Z" fill="#789868"/>
</svg>
