<svg width="21" height="20" viewBox="0 0 21 20" fill="none" xmlns="http://www.w3.org/2000/svg">
<g opacity="0.3">
<path d="M17.4132 13.1632C17.3261 13.2506 17.2227 13.3199 17.1087 13.3673C16.9947 13.4146 16.8726 13.4389 16.7492 13.4389C16.6258 13.4389 16.5036 13.4146 16.3897 13.3673C16.2757 13.3199 16.1722 13.2506 16.0851 13.1632L10.5 7.57803L4.91325 13.1632C4.73713 13.3393 4.49826 13.4383 4.24918 13.4383C4.00011 13.4383 3.76124 13.3393 3.58512 13.1632C3.409 12.9871 3.31006 12.7482 3.31006 12.4991C3.31006 12.2501 3.409 12.0112 3.58512 11.8351L9.83512 5.58507C9.92222 5.49767 10.0257 5.42832 10.1397 5.381C10.2536 5.33368 10.3758 5.30933 10.4992 5.30933C10.6226 5.30933 10.7447 5.33368 10.8587 5.381C10.9727 5.42832 11.0762 5.49767 11.1632 5.58507L17.4132 11.8351C17.5006 11.9222 17.57 12.0257 17.6173 12.1396C17.6646 12.2536 17.689 12.3757 17.689 12.4991C17.689 12.6225 17.6646 12.7447 17.6173 12.8586C17.57 12.9726 17.5006 13.0761 17.4132 13.1632Z" fill="#3F4141"/>
</g>
</svg>
