<svg width="17" height="16" viewBox="0 0 17 16" fill="none" xmlns="http://www.w3.org/2000/svg">
<path d="M3.78335 2.16701C3.78313 2.60904 3.60732 3.03287 3.2946 3.34528C2.98188 3.65768 2.55787 3.83307 2.11585 3.83285C1.67382 3.83262 1.24998 3.65682 0.937578 3.3441C0.625174 3.03138 0.449791 2.60737 0.450012 2.16535C0.450233 1.72332 0.62604 1.29948 0.938757 0.987078C1.25147 0.674674 1.67548 0.499291 2.11751 0.499512C2.55954 0.499733 2.98338 0.67554 3.29578 0.988256C3.60818 1.30097 3.78357 1.72498 3.78335 2.16701ZM3.83335 5.06701H0.500012V15.5003H3.83335V5.06701ZM9.10001 5.06701H5.78335V15.5003H9.06668V10.0253C9.06668 6.97535 13.0417 6.69201 13.0417 10.0253V15.5003H16.3333V8.89201C16.3333 3.75034 10.45 3.94201 9.06668 6.46701L9.10001 5.06701Z" fill="#789868"/>
</svg>
