<svg width="14" height="17" viewBox="0 0 14 17" fill="none" xmlns="http://www.w3.org/2000/svg">
<path d="M7 16.7707C6.80556 16.7707 6.61111 16.736 6.41667 16.6665C6.22222 16.5971 6.04861 16.4929 5.89584 16.354C4.99306 15.5207 4.19445 14.7082 3.5 13.9165C2.80556 13.1248 2.2257 12.3575 1.76042 11.6144C1.29514 10.8714 0.940975 10.1561 0.697919 9.46859C0.454864 8.78109 0.333336 8.12484 0.333336 7.49984C0.333336 5.4165 1.00347 3.75678 2.34375 2.52067C3.68403 1.28456 5.23611 0.666504 7 0.666504C8.76389 0.666504 10.316 1.28456 11.6563 2.52067C12.9965 3.75678 13.6667 5.4165 13.6667 7.49984C13.6667 8.12484 13.5451 8.78109 13.3021 9.46859C13.059 10.1561 12.7049 10.8714 12.2396 11.6144C11.7743 12.3575 11.1944 13.1248 10.5 13.9165C9.80556 14.7082 9.00695 15.5207 8.10417 16.354C7.95139 16.4929 7.77778 16.5971 7.58334 16.6665C7.38889 16.736 7.19445 16.7707 7 16.7707ZM7 8.99984C7.45834 8.99984 7.8507 8.83664 8.17709 8.51025C8.50348 8.18387 8.66667 7.7915 8.66667 7.33317C8.66667 6.87484 8.50348 6.48248 8.17709 6.15609C7.8507 5.8297 7.45834 5.6665 7 5.6665C6.54167 5.6665 6.14931 5.8297 5.82292 6.15609C5.49653 6.48248 5.33334 6.87484 5.33334 7.33317C5.33334 7.7915 5.49653 8.18387 5.82292 8.51025C6.14931 8.83664 6.54167 8.99984 7 8.99984Z" fill="#789868"/>
</svg>
