<svg width="18" height="14" viewBox="0 0 18 14" fill="none" xmlns="http://www.w3.org/2000/svg">
<path d="M2.33334 13.6668C1.87501 13.6668 1.48264 13.5036 1.15626 13.1772C0.829866 12.8509 0.666672 12.4585 0.666672 12.0002V2.00016C0.666672 1.54183 0.829866 1.14947 1.15626 0.823079C1.48264 0.496691 1.87501 0.333496 2.33334 0.333496H15.6667C16.125 0.333496 16.5174 0.496691 16.8438 0.823079C17.1701 1.14947 17.3333 1.54183 17.3333 2.00016V12.0002C17.3333 12.4585 17.1701 12.8509 16.8438 13.1772C16.5174 13.5036 16.125 13.6668 15.6667 13.6668H2.33334ZM9 7.68766C9.06945 7.68766 9.14237 7.67725 9.21875 7.65641C9.29514 7.63558 9.36806 7.60433 9.43751 7.56266L15.3333 3.87516C15.4444 3.80572 15.5278 3.71891 15.5833 3.61475C15.6389 3.51058 15.6667 3.396 15.6667 3.271C15.6667 2.99322 15.5486 2.78488 15.3125 2.646C15.0764 2.50711 14.8333 2.51405 14.5833 2.66683L9 6.16683L3.41667 2.66683C3.16667 2.51405 2.92362 2.51058 2.68751 2.65641C2.45139 2.80225 2.33334 3.00711 2.33334 3.271C2.33334 3.40988 2.36112 3.53141 2.41667 3.63558C2.47223 3.73975 2.55556 3.81961 2.66667 3.87516L8.56251 7.56266C8.63195 7.60433 8.70487 7.63558 8.78125 7.65641C8.85764 7.67725 8.93056 7.68766 9 7.68766Z" fill="#789868"/>
</svg>
