<svg width="22" height="22" viewBox="0 0 22 22" fill="none" xmlns="http://www.w3.org/2000/svg">
<path d="M20.75 18.875H18.875V2.75C18.875 2.25272 18.6775 1.77581 18.3258 1.42417C17.9742 1.07254 17.4973 0.875 17 0.875H5C4.50272 0.875 4.02581 1.07254 3.67417 1.42417C3.32254 1.77581 3.125 2.25272 3.125 2.75V18.875H1.25C0.951631 18.875 0.665483 18.9935 0.454505 19.2045C0.243526 19.4155 0.125 19.7016 0.125 20C0.125 20.2984 0.243526 20.5845 0.454505 20.7955C0.665483 21.0065 0.951631 21.125 1.25 21.125H20.75C21.0484 21.125 21.3345 21.0065 21.5455 20.7955C21.7565 20.5845 21.875 20.2984 21.875 20C21.875 19.7016 21.7565 19.4155 21.5455 19.2045C21.3345 18.9935 21.0484 18.875 20.75 18.875ZM5.375 3.125H16.625V18.875H5.375V3.125ZM15.125 11.375C15.125 11.6717 15.037 11.9617 14.8722 12.2084C14.7074 12.455 14.4731 12.6473 14.199 12.7608C13.9249 12.8744 13.6233 12.9041 13.3324 12.8462C13.0414 12.7883 12.7741 12.6454 12.5643 12.4357C12.3546 12.2259 12.2117 11.9586 12.1538 11.6676C12.0959 11.3767 12.1256 11.0751 12.2392 10.801C12.3527 10.5269 12.545 10.2926 12.7916 10.1278C13.0383 9.96297 13.3283 9.875 13.625 9.875C14.0228 9.875 14.4044 10.033 14.6857 10.3143C14.967 10.5956 15.125 10.9772 15.125 11.375Z" fill="#789868"/>
</svg>
