<svg width="18" height="18" viewBox="0 0 18 18" fill="none" xmlns="http://www.w3.org/2000/svg">
<path d="M2.2 17.9999C1.58333 17.9999 1.0625 17.7874 0.6375 17.3624C0.2125 16.9374 0 16.4166 0 15.7999V2.09988C0 1.61655 0.225 1.27905 0.675 1.08738C1.125 0.895716 1.51667 0.966549 1.85 1.29988L4.1 3.54988L2.75 4.89988L3.45 5.59988L4.8 4.24988L7.4 6.84988L6.05 8.19988L6.75 8.89988L8.1 7.54988L10.7 10.1499L9.35 11.4999L10.05 12.1999L11.4 10.8499L14 13.4499L12.65 14.7999L13.35 15.4999L14.7 14.1499L16.7 16.1499C17.0333 16.4832 17.1042 16.8749 16.9125 17.3249C16.7208 17.7749 16.3833 17.9999 15.9 17.9999H2.2ZM3 14.9999H11.3L3 6.69988V14.9999Z" fill="#789868"/>
</svg>
