<svg width="24" height="20" viewBox="0 0 24 20" fill="none" xmlns="http://www.w3.org/2000/svg">
<path d="M23.9644 1.84193C23.9481 1.56702 23.8316 1.30763 23.6368 1.11291C23.4421 0.918178 23.1827 0.801639 22.9078 0.785367C17.9138 0.49193 13.8891 2.03787 12.1416 4.92349C11.0034 6.79849 10.9641 9.06443 12.0047 11.2329C11.4982 11.879 11.1086 12.6088 10.8534 13.3891L9.66657 12.2022C10.3406 10.6301 10.2694 9.00443 9.44157 7.63755C8.13094 5.47099 5.14594 4.31224 1.45782 4.52505C1.18276 4.54135 0.923248 4.65802 0.728498 4.85294C0.533749 5.04787 0.417307 5.30748 0.401256 5.58255C0.187506 9.27068 1.34626 12.2557 3.51094 13.5663C4.24511 14.0138 5.08866 14.2496 5.94844 14.2479C6.68147 14.2419 7.40558 14.0865 8.07657 13.7913L10.5 16.2185V18.3747C10.5 18.6731 10.6185 18.9593 10.8295 19.1702C11.0405 19.3812 11.3266 19.4997 11.625 19.4997C11.9234 19.4997 12.2095 19.3812 12.4205 19.1702C12.6315 18.9593 12.75 18.6731 12.75 18.3747V15.6101C12.7477 14.6044 13.0587 13.623 13.6397 12.8022C14.5809 13.2481 15.6076 13.4844 16.6491 13.4951C17.7696 13.4976 18.869 13.1907 19.8263 12.6082C22.7109 10.8607 24.2588 6.83599 23.9644 1.84193ZM4.67626 11.6416C3.43969 10.8916 2.69063 9.06724 2.62969 6.75443C4.94251 6.81537 6.76782 7.56443 7.51688 8.80099C7.80981 9.27746 7.92997 9.84018 7.85719 10.3947L6.79501 9.3288C6.58366 9.11746 6.29702 8.99873 5.99813 8.99873C5.69924 8.99873 5.4126 9.11746 5.20126 9.3288C4.98991 9.54015 4.87118 9.82679 4.87118 10.1257C4.87118 10.4246 4.98991 10.7112 5.20126 10.9226L6.26438 11.9857C5.71133 12.054 5.15146 11.9327 4.67626 11.6416ZM18.6609 10.6872C17.6616 11.2919 16.5047 11.4063 15.3038 11.0397L18.7959 7.54849C19.0073 7.33715 19.126 7.0505 19.126 6.75162C19.126 6.45273 19.0073 6.16609 18.7959 5.95474C18.5846 5.7434 18.298 5.62467 17.9991 5.62467C17.7002 5.62467 17.4135 5.7434 17.2022 5.95474L13.71 9.44599C13.3472 8.24974 13.4616 7.08818 14.0625 6.09349C15.2531 4.12474 18.0609 2.99974 21.6863 2.99974H21.75C21.7631 6.65599 20.6381 9.48537 18.6609 10.6872Z" fill="#789868"/>
</svg>
