<svg width="12" height="7" viewBox="0 0 12 7" fill="none" xmlns="http://www.w3.org/2000/svg">
<path d="M5.64628 6.35372L0.646276 1.35372C0.599821 1.30727 0.562972 1.25212 0.53783 1.19142C0.512689 1.13072 0.499748 1.06567 0.499748 0.999973C0.499748 0.934275 0.512689 0.869221 0.53783 0.808525C0.562972 0.747828 0.599821 0.692678 0.646276 0.646223C0.692732 0.599767 0.747882 0.562917 0.808578 0.537776C0.869275 0.512635 0.934329 0.499695 1.00003 0.499695C1.06572 0.499695 1.13078 0.512635 1.19147 0.537776C1.25217 0.562917 1.30732 0.599767 1.35378 0.646223L6.00003 5.2931L10.6463 0.646223C10.7401 0.552402 10.8673 0.499695 11 0.499695C11.1327 0.499695 11.26 0.552402 11.3538 0.646223C11.4476 0.740043 11.5003 0.867291 11.5003 0.999973C11.5003 1.13265 11.4476 1.2599 11.3538 1.35372L6.35378 6.35372C6.30734 6.40021 6.2522 6.43709 6.1915 6.46225C6.1308 6.48741 6.06573 6.50037 6.00003 6.50037C5.93432 6.50037 5.86926 6.48741 5.80856 6.46225C5.74786 6.43709 5.69271 6.40021 5.64628 6.35372Z" fill="#3F4141"/>
</svg>
