<svg width="16" height="14" viewBox="0 0 16 14" fill="none" xmlns="http://www.w3.org/2000/svg">
<path d="M0.682784 6.41951L6.30778 0.79451C6.42506 0.677235 6.58412 0.611349 6.74997 0.611349C6.91582 0.611349 7.07488 0.677235 7.19216 0.79451C7.30944 0.911785 7.37532 1.07084 7.37532 1.2367C7.37532 1.40255 7.30943 1.56161 7.19216 1.67889L2.63356 6.2367L14.875 6.2367C15.0407 6.2367 15.1997 6.30255 15.3169 6.41976C15.4341 6.53697 15.5 6.69594 15.5 6.8617C15.5 7.02746 15.4341 7.18643 15.3169 7.30364C15.1997 7.42085 15.0407 7.4867 14.875 7.4867L2.63356 7.4867L7.19216 12.0445C7.30943 12.1618 7.37532 12.3208 7.37532 12.4867C7.37532 12.6525 7.30943 12.8116 7.19216 12.9289C7.07488 13.0462 6.91582 13.112 6.74997 13.112C6.58412 13.112 6.42506 13.0462 6.30778 12.9289L0.682784 7.30388C0.624673 7.24584 0.578574 7.17691 0.547121 7.10103C0.515668 7.02516 0.499481 6.94383 0.499481 6.8617C0.499481 6.77956 0.515668 6.69823 0.547121 6.62236C0.578574 6.54649 0.624673 6.47755 0.682784 6.41951Z" fill="#3F4141"/>
</svg>
