<svg width="16" height="14" viewBox="0 0 16 14" fill="none" xmlns="http://www.w3.org/2000/svg">
<path d="M15.3172 7.30388L9.69222 12.9289C9.57494 13.0462 9.41588 13.112 9.25003 13.112C9.08418 13.112 8.92512 13.0462 8.80784 12.9289C8.69057 12.8116 8.62468 12.6525 8.62468 12.4867C8.62468 12.3208 8.69057 12.1618 8.80784 12.0445L13.3664 7.48669H1.12503C0.95927 7.48669 0.800299 7.42084 0.683089 7.30363C0.565879 7.18642 0.500031 7.02745 0.500031 6.86169C0.500031 6.69593 0.565879 6.53696 0.683089 6.41975C0.800299 6.30254 0.95927 6.23669 1.12503 6.23669H13.3664L8.80784 1.67888C8.69057 1.5616 8.62468 1.40254 8.62468 1.23669C8.62468 1.07084 8.69057 0.911779 8.80784 0.794503C8.92512 0.677228 9.08418 0.611343 9.25003 0.611343C9.41588 0.611343 9.57494 0.677228 9.69222 0.794503L15.3172 6.4195C15.3753 6.47755 15.4214 6.54648 15.4529 6.62235C15.4843 6.69823 15.5005 6.77956 15.5005 6.86169C15.5005 6.94382 15.4843 7.02515 15.4529 7.10103C15.4214 7.1769 15.3753 7.24583 15.3172 7.30388Z" fill="#3F4141"/>
</svg>
