<svg width="14" height="13" viewBox="0 0 14 13" fill="none" xmlns="http://www.w3.org/2000/svg">
<path d="M13.0672 11.6828C13.1252 11.7409 13.1713 11.8098 13.2027 11.8857C13.2342 11.9616 13.2503 12.0429 13.2503 12.125C13.2503 12.2071 13.2342 12.2885 13.2027 12.3643C13.1713 12.4402 13.1252 12.5091 13.0672 12.5672C13.0091 12.6253 12.9402 12.6713 12.8643 12.7028C12.7884 12.7342 12.7071 12.7504 12.625 12.7504C12.5429 12.7504 12.4615 12.7342 12.3857 12.7028C12.3098 12.6713 12.2409 12.6253 12.1828 12.5672L6.99998 7.38361L1.81717 12.5672C1.69989 12.6845 1.54083 12.7504 1.37498 12.7504C1.20913 12.7504 1.05007 12.6845 0.932794 12.5672C0.815518 12.4499 0.749634 12.2909 0.749634 12.125C0.749634 11.9592 0.815518 11.8001 0.932794 11.6828L6.11639 6.50001L0.932794 1.3172C0.815518 1.19992 0.749634 1.04086 0.749634 0.875012C0.749634 0.709159 0.815518 0.5501 0.932794 0.432824C1.05007 0.315549 1.20913 0.249664 1.37498 0.249664C1.54083 0.249664 1.69989 0.315549 1.81717 0.432824L6.99998 5.61642L12.1828 0.432824C12.3001 0.315549 12.4591 0.249664 12.625 0.249664C12.7908 0.249664 12.9499 0.315549 13.0672 0.432824C13.1844 0.5501 13.2503 0.709159 13.2503 0.875012C13.2503 1.04086 13.1844 1.19992 13.0672 1.3172L7.88357 6.50001L13.0672 11.6828Z" fill="#3F4141"/>
</svg>
