<svg width="18" height="18" viewBox="0 0 18 18" fill="none" xmlns="http://www.w3.org/2000/svg">
<path d="M9.83332 15.615C11.5144 15.4011 13.0509 14.5551 14.1307 13.249C15.2104 11.9428 15.7523 10.2746 15.6461 8.5833C15.54 6.892 14.7939 5.30456 13.5594 4.14364C12.3249 2.98272 10.6946 2.33542 8.99999 2.33332C7.30329 2.33206 5.66995 2.97777 4.43277 4.13889C3.1956 5.3 2.44769 6.88915 2.34144 8.58252C2.2352 10.2759 2.7786 11.9461 3.86094 13.2527C4.94328 14.5594 6.4831 15.4042 8.16666 15.615V10.6667H6.49999V8.99999H8.16666V7.62166C8.16666 6.50749 8.28332 6.10332 8.49999 5.69582C8.71342 5.29264 9.04329 4.96306 9.44666 4.74999C9.76499 4.57916 10.1608 4.47666 10.8525 4.43249C11.1267 4.41499 11.4817 4.43666 11.9175 4.49916V6.08249H11.5C10.7358 6.08249 10.42 6.11832 10.2317 6.21916C10.1193 6.27695 10.0278 6.36845 9.96999 6.48082C9.86999 6.66916 9.83332 6.85582 9.83332 7.62082V8.99999H11.9167L11.5 10.6667H9.83332V15.615ZM8.99999 17.3333C4.39749 17.3333 0.666656 13.6025 0.666656 8.99999C0.666656 4.39749 4.39749 0.666656 8.99999 0.666656C13.6025 0.666656 17.3333 4.39749 17.3333 8.99999C17.3333 13.6025 13.6025 17.3333 8.99999 17.3333Z" fill="#3F4141"/>
</svg>
