<svg width="18" height="18" viewBox="0 0 18 18" fill="none" xmlns="http://www.w3.org/2000/svg">
<path d="M8.99999 6.49999C8.33695 6.49999 7.70106 6.76338 7.23222 7.23222C6.76338 7.70106 6.49999 8.33695 6.49999 8.99999C6.49999 9.66303 6.76338 10.2989 7.23222 10.7678C7.70106 11.2366 8.33695 11.5 8.99999 11.5C9.66303 11.5 10.2989 11.2366 10.7678 10.7678C11.2366 10.2989 11.5 9.66303 11.5 8.99999C11.5 8.33695 11.2366 7.70106 10.7678 7.23222C10.2989 6.76338 9.66303 6.49999 8.99999 6.49999ZM8.99999 4.83332C10.1051 4.83332 11.1649 5.27231 11.9463 6.05371C12.7277 6.83511 13.1667 7.89492 13.1667 8.99999C13.1667 10.1051 12.7277 11.1649 11.9463 11.9463C11.1649 12.7277 10.1051 13.1667 8.99999 13.1667C7.89492 13.1667 6.83511 12.7277 6.05371 11.9463C5.27231 11.1649 4.83332 10.1051 4.83332 8.99999C4.83332 7.89492 5.27231 6.83511 6.05371 6.05371C6.83511 5.27231 7.89492 4.83332 8.99999 4.83332ZM14.4167 4.62499C14.4167 4.90126 14.3069 5.16621 14.1116 5.36156C13.9162 5.55691 13.6513 5.66666 13.375 5.66666C13.0987 5.66666 12.8338 5.55691 12.6384 5.36156C12.4431 5.16621 12.3333 4.90126 12.3333 4.62499C12.3333 4.34872 12.4431 4.08377 12.6384 3.88842C12.8338 3.69307 13.0987 3.58332 13.375 3.58332C13.6513 3.58332 13.9162 3.69307 14.1116 3.88842C14.3069 4.08377 14.4167 4.34872 14.4167 4.62499ZM8.99999 2.33332C6.93832 2.33332 6.60166 2.33916 5.64249 2.38166C4.98916 2.41249 4.55082 2.49999 4.14416 2.65832C3.78249 2.79832 3.52166 2.96582 3.24416 3.24416C2.98333 3.49616 2.78278 3.80381 2.65749 4.14416C2.49916 4.55249 2.41166 4.98999 2.38166 5.64249C2.33832 6.56249 2.33332 6.88416 2.33332 8.99999C2.33332 11.0617 2.33916 11.3983 2.38166 12.3575C2.41249 13.01 2.49999 13.4492 2.65749 13.855C2.79916 14.2175 2.96582 14.4783 3.24249 14.755C3.52332 15.035 3.78416 15.2025 4.14249 15.3408C4.55416 15.5 4.99249 15.5883 5.64249 15.6183C6.56249 15.6617 6.88416 15.6667 8.99999 15.6667C11.0617 15.6667 11.3983 15.6608 12.3575 15.6183C13.0092 15.5875 13.4483 15.5 13.855 15.3425C14.2158 15.2017 14.4783 15.0342 14.755 14.7575C15.0358 14.4767 15.2033 14.2158 15.3417 13.8575C15.5 13.4467 15.5883 13.0075 15.6183 12.3575C15.6617 11.4375 15.6667 11.1158 15.6667 8.99999C15.6667 6.93832 15.6608 6.60166 15.6183 5.64249C15.5875 4.99082 15.5 4.55082 15.3417 4.14416C15.2161 3.80416 15.0159 3.49662 14.7558 3.24416C14.5039 2.98319 14.1962 2.78263 13.8558 2.65749C13.4475 2.49916 13.0092 2.41166 12.3575 2.38166C11.4375 2.33832 11.1158 2.33332 8.99999 2.33332ZM8.99999 0.666656C11.2642 0.666656 11.5467 0.67499 12.435 0.716656C13.3225 0.758323 13.9267 0.89749 14.4583 1.10416C15.0083 1.31582 15.4717 1.60249 15.935 2.06499C16.3587 2.48157 16.6866 2.98548 16.8958 3.54166C17.1017 4.07249 17.2417 4.67749 17.2833 5.56499C17.3225 6.45332 17.3333 6.73582 17.3333 8.99999C17.3333 11.2642 17.325 11.5467 17.2833 12.435C17.2417 13.3225 17.1017 13.9267 16.8958 14.4583C16.6872 15.0148 16.3593 15.5188 15.935 15.935C15.5183 16.3586 15.0144 16.6865 14.4583 16.8958C13.9275 17.1017 13.3225 17.2417 12.435 17.2833C11.5467 17.3225 11.2642 17.3333 8.99999 17.3333C6.73582 17.3333 6.45332 17.325 5.56499 17.2833C4.67749 17.2417 4.07332 17.1017 3.54166 16.8958C2.98526 16.6871 2.48126 16.3591 2.06499 15.935C1.64116 15.5185 1.31327 15.0145 1.10416 14.4583C0.89749 13.9275 0.758323 13.3225 0.716656 12.435C0.67749 11.5467 0.666656 11.2642 0.666656 8.99999C0.666656 6.73582 0.67499 6.45332 0.716656 5.56499C0.758323 4.67666 0.89749 4.07332 1.10416 3.54166C1.31269 2.98514 1.64066 2.48109 2.06499 2.06499C2.48138 1.64102 2.98535 1.3131 3.54166 1.10416C4.07332 0.89749 4.67666 0.758323 5.56499 0.716656C6.45332 0.67749 6.73582 0.666656 8.99999 0.666656Z" fill="#3F4141"/>
</svg>
