<svg width="136" height="64" viewBox="0 0 136 64" fill="none" xmlns="http://www.w3.org/2000/svg">
<g clip-path="url(#clip0_1_36)">
<path d="M65.6999 22.2835L60.2129 22.3008H59.9642L59.9816 0.722748H69.2442C70.7591 0.722748 72.0831 0.890423 73.2337 1.20265C74.3843 1.51487 75.4019 2.17979 76.275 3.19162C77.0556 4.11095 77.3042 5.30202 77.0382 6.73016C76.7723 8.15829 76.038 9.2742 74.87 10.0721C73.6847 10.87 71.9848 11.8009 69.753 12.9052C67.5212 14.0038 66.1798 15.3452 65.6999 16.941V22.2835ZM68.6776 11.5927C70.1577 9.69628 70.9846 7.7709 71.1407 5.82818C71.2158 4.97245 71.1869 4.18611 71.0482 3.48072C70.921 2.77533 70.6723 2.20292 70.3023 1.76349C69.9265 1.32407 69.4119 1.11592 68.7412 1.11592H65.7172V10.5289L65.6999 16.2067C66.1971 15.0156 67.1974 13.4834 68.6776 11.5985" fill="#3F4141"/>
<path d="M84.757 3.56745C84.757 5.13435 83.433 6.41215 81.8083 6.41215C80.1836 6.41215 78.8595 5.13435 78.8595 3.56745C78.8595 2.00055 80.1836 0.722748 81.8083 0.722748C83.433 0.722748 84.757 1.98899 84.757 3.56745ZM79.1255 22.2257L79.1428 8.04265C81.4035 8.48208 83.3231 7.93858 84.9305 6.38902V22.2315H79.1255V22.2257Z" fill="#3F4141"/>
<path d="M87.3185 22.2257L87.3358 2.31856C90.2846 2.46889 92.2158 1.91382 93.1235 0.659149V22.2199H87.3185V22.2257Z" fill="#3F4141"/>
<path d="M95.9393 22.2257L95.9566 2.31856C98.9054 2.46889 100.837 1.91382 101.744 0.659149V22.2199H95.9393V22.2257Z" fill="#3F4141"/>
<path d="M106.908 7.7709C107.515 7.21583 108.278 6.85157 109.232 6.6839C110.169 6.51622 111.18 6.44106 112.273 6.4584C113.383 6.47575 114.424 6.66655 115.424 7.03081C116.407 7.40664 117.217 7.95014 117.859 8.65553C118.5 9.37827 118.807 10.2802 118.824 11.3499L118.841 19.8262C118.824 20.1847 118.841 20.5605 118.888 20.9421C118.917 21.3179 119.026 21.6475 119.2 21.9192C119.373 22.2083 119.668 22.3413 120.073 22.3413H115.176C114.332 22.3587 113.742 22.1332 113.412 21.6937C113.083 21.2543 112.973 20.5027 113.117 19.4504C112.181 20.6241 111.134 21.4393 109.984 21.873C108.816 22.324 107.723 22.4454 106.676 22.2488C105.63 22.0522 104.803 21.555 104.196 20.7918C103.589 20.0228 103.369 18.9994 103.543 17.7331C103.716 16.7271 104.103 15.9407 104.699 15.3683C105.289 14.7959 105.994 14.3623 106.804 14.0443C107.601 13.7263 108.422 13.4719 109.255 13.2753C110.255 13.0324 111.111 12.7318 111.845 12.3849C112.562 12.0379 112.984 11.4829 113.106 10.7428C113.291 8.82899 112.701 7.68417 111.342 7.32569C109.972 6.97877 108.862 7.02503 108.018 7.49336C108.879 7.43555 109.561 7.64369 110.111 8.14094C110.654 8.63818 110.92 9.22794 110.92 9.90442C110.92 10.5809 110.672 11.1707 110.169 11.6332C109.671 12.1131 109.064 12.356 108.359 12.356C107.653 12.356 107.064 12.1131 106.566 11.6332C106.069 11.1649 105.821 10.5809 105.821 9.90442C105.821 9.58642 105.867 9.3031 105.977 9.03135C106.133 8.60927 106.445 8.18719 106.913 7.76511M112.609 12.2345C112.343 12.4774 112.048 12.7318 111.707 12.9862C111.128 13.3909 110.568 13.9055 110.053 14.4895C109.538 15.0908 109.226 15.8598 109.151 16.808C109.134 17.8025 109.353 18.6004 109.804 19.1902C110.238 19.7915 110.77 20.1095 111.394 20.1384C112.019 20.1673 112.597 19.8204 113.123 19.115L113.106 11.4944C113.031 11.7489 112.857 12.009 112.609 12.2345Z" fill="#3F4141"/>
<path d="M130.752 7.38928C130.001 7.58586 129.428 7.94434 129.035 8.48784C128.208 9.60375 127.647 11.1533 127.381 13.1423L127.364 22.3702H121.559L121.576 7.89808C124.184 8.14092 126.115 7.68994 127.376 6.52777V11.0608C127.607 9.85815 128.075 8.84632 128.792 8.0195C129.573 7.14644 130.602 6.70701 131.862 6.72436C133.14 6.72436 134.123 6.99611 134.857 7.53961C135.574 8.08311 135.95 8.83475 135.967 9.80033C135.967 10.4768 135.719 11.0666 135.222 11.5291C134.724 12.009 134.129 12.2519 133.429 12.2519C132.73 12.2519 132.117 12.009 131.619 11.5291C131.122 11.0608 130.874 10.4768 130.874 9.80033C130.856 8.70177 131.325 7.97903 132.279 7.61477C132.013 7.25629 131.498 7.17535 130.752 7.38928Z" fill="#3F4141"/>
<path d="M65.9427 47.4464L60.4499 47.4637H60.2013L60.2186 25.8856H69.4813C70.9961 25.8856 72.3202 26.0533 73.4766 26.3655C74.6329 26.6835 75.6448 27.3427 76.5178 28.3545C77.2984 29.2738 77.547 30.4649 77.2811 31.893C77.0151 33.3212 76.2808 34.4371 75.1128 35.235C73.9276 36.0329 72.2277 36.9695 69.9959 38.0681C67.764 39.1667 66.4226 40.5081 65.9427 42.1039V47.4464ZM68.9204 36.7556C70.4006 34.8591 71.2274 32.9338 71.3835 30.9853C71.4587 30.1295 71.4298 29.3432 71.291 28.6378C71.1638 27.9324 70.9152 27.36 70.5394 26.9206C70.1635 26.4812 69.6489 26.273 68.9782 26.273H65.9543V35.6802L65.937 41.358C66.4342 40.1669 67.4345 38.6347 68.9146 36.7498" fill="#3F4141"/>
<path d="M79.0619 32.9338C79.669 32.3787 80.4322 32.0145 81.3862 31.8526C82.3229 31.6849 83.3347 31.6097 84.4275 31.6271C85.5318 31.6444 86.5784 31.8352 87.5786 32.1995C88.5616 32.5753 89.371 33.1188 90.0128 33.8242C90.6546 34.5469 90.9668 35.4489 90.9784 36.5186L90.9957 44.9949C90.9784 45.3533 90.9957 45.7292 91.042 46.1108C91.0709 46.4866 91.1808 46.8162 91.3542 47.0879C91.5277 47.3712 91.8226 47.51 92.2273 47.51H87.33C86.4858 47.5273 85.8961 47.2961 85.5665 46.8624C85.237 46.423 85.1271 45.6713 85.2716 44.619C84.335 45.7928 83.2885 46.608 82.1379 47.0417C80.9699 47.4926 79.8771 47.6141 78.8306 47.4175C77.7841 47.2209 76.9573 46.7237 76.3502 45.9547C75.7431 45.1857 75.5233 44.1623 75.6968 42.896C75.8703 41.89 76.2576 41.1036 76.8532 40.5312C77.4429 39.9588 78.1483 39.5252 78.9578 39.2072C79.7557 38.8892 80.5767 38.6348 81.4093 38.4382C82.4096 38.1953 83.2653 37.8947 83.9996 37.5478C84.7166 37.2008 85.1387 36.6458 85.2601 35.9057C85.4451 33.9919 84.8554 32.8471 83.4966 32.4886C82.1263 32.1417 81.0162 32.1879 80.172 32.6563C81.0335 32.5927 81.7158 32.8066 82.2651 33.3038C82.8086 33.8011 83.0745 34.3908 83.0745 35.0673C83.0745 35.7438 82.8259 36.3336 82.3287 36.8019C81.8314 37.2818 81.2185 37.5246 80.5189 37.5246C79.8193 37.5246 79.2238 37.2818 78.7265 36.8019C78.2293 36.3336 77.9807 35.7496 77.9807 35.0673C77.9807 34.7493 78.0269 34.466 78.1368 34.1942C78.2929 33.7722 78.6051 33.3501 79.0734 32.928M84.7686 37.3974C84.5027 37.6403 84.2078 37.8947 83.8666 38.1491C83.2885 38.5538 82.7276 39.0684 82.213 39.6524C81.6984 40.2537 81.3862 41.0227 81.311 41.9709C81.2937 42.9654 81.5134 43.7633 81.9644 44.3473C82.398 44.9486 82.93 45.2666 83.5544 45.2955C84.1789 45.3244 84.7571 44.9775 85.289 44.2721L85.2716 36.6516C85.1965 36.906 85.023 37.1604 84.7744 37.3859" fill="#3F4141"/>
<path d="M102.906 32.558C102.161 32.7545 101.582 33.113 101.189 33.6565C100.362 34.7724 99.8016 36.322 99.5356 38.311L99.5183 47.5389H93.7133L93.7306 33.0726C96.3325 33.3154 98.2694 32.8644 99.5299 31.7022V36.2353C99.7611 35.0326 100.229 34.0208 100.946 33.194C101.727 32.3209 102.756 31.8815 104.017 31.8988C105.294 31.8988 106.277 32.1706 107.012 32.7141C107.729 33.2576 108.104 34.0092 108.122 34.969C108.122 35.6455 107.873 36.2353 107.376 36.7036C106.879 37.1835 106.283 37.4263 105.584 37.4263C104.884 37.4263 104.271 37.1835 103.774 36.7036C103.277 36.2353 103.028 35.6513 103.028 34.969C103.011 33.8705 103.479 33.1477 104.433 32.7892C104.167 32.4308 103.652 32.3498 102.906 32.5637" fill="#3F4141"/>
<path d="M115.476 47.4753H109.677V27.3889C112.655 27.5219 114.592 27.0304 115.476 25.8856V36.3971C115.852 34.9343 116.488 33.8242 117.396 33.0263C118.442 32.107 119.547 31.7138 120.749 31.8352C121.825 31.9393 122.762 32.425 123.507 33.2633C123.993 33.7432 124.224 34.3041 124.224 34.9632C124.224 35.6224 123.976 36.2295 123.479 36.7094C122.981 37.1893 122.368 37.4321 121.669 37.4321C120.969 37.4321 120.374 37.1893 119.876 36.7094C119.379 36.2295 119.131 35.6397 119.131 34.9632C119.131 34.2867 119.379 33.7143 119.876 33.2344C120.281 32.8413 120.83 32.6042 121.53 32.5117C120.298 32.1359 119.298 32.1821 118.535 32.6505C117.754 33.1188 117.072 33.8704 116.459 34.9112C116.02 35.6628 115.696 36.5533 115.476 37.5477V38.6926H121.091L125.705 47.4868H119.905L115.476 39.0568V47.4868V47.4753Z" fill="#3F4141"/>
<path d="M52.864 0H51.7366V63.9191H52.864V0Z" fill="#789868"/>
<path d="M19.9302 18.1379C11.6794 24.2262 2.79843 22.5379 2.79843 22.5379C1.39342 22.96 -0.00579834 21.8614 -0.00579834 20.3408V1.61894C-1.64267e-05 0.728521 0.699595 0 1.55532 0H27.6953C34.5411 0.508808 30.1006 10.6272 19.9245 18.1321" fill="#789868"/>
<path d="M19.3116 63.8728H1.84443C0.826814 63.8728 0 63.0171 0 61.9532V28.1984C0 27.2039 0.774776 26.4002 1.72879 26.4002C1.72879 26.4002 11.4944 26.7703 17.4151 37.5825C20.3986 43.0232 20.9594 56.9577 21.0635 62.011C21.0866 63.0344 20.2945 63.8728 19.3116 63.8728Z" fill="#789868"/>
<path d="M24.7119 44.5728C22.9021 44.5207 21.3988 43.1041 21.156 41.2308C20.6241 37.091 20.0112 29.719 21.6128 25.4867C25.1629 16.0737 32.4307 10.8411 36.1658 8.66707C37.5419 7.86917 39.2707 8.15826 40.323 9.37824C42.7399 12.1651 46.6427 17.6522 46.157 23.5208C44.5438 42.8902 30.9448 44.7578 24.7119 44.5728Z" fill="#789868"/>
<path d="M62.7626 60.4094C62.7626 60.4094 62.7222 60.4094 62.699 60.4094C62.6354 60.4094 62.5718 60.4037 62.5082 60.3921C62.3232 60.3747 62.1498 60.3458 61.9821 60.3054C61.4675 60.1724 61.0801 59.9469 60.8199 59.6231C60.8373 60.103 60.9182 60.5019 61.0685 60.8084C61.2189 61.109 61.4559 61.3577 61.7739 61.5543C62.9072 62.1093 63.786 62.6297 64.4047 63.1154C64.5955 63.2715 64.7574 63.4102 64.8788 63.5375C64.9193 63.5837 64.954 63.6242 64.9771 63.6589C64.9829 63.6704 64.9945 63.682 65.0002 63.6878H65.0118V63.7051L65.1217 63.8786H63.4623L63.4276 63.8208V63.8092L63.416 63.7976C63.4044 63.7803 63.3929 63.7629 63.3813 63.7456C63.3466 63.6878 63.3061 63.6357 63.2541 63.5779C63.1096 63.3871 62.9303 63.2021 62.728 63.0344C62.0804 62.5025 61.2767 62.1845 60.3227 62.0862C60.155 62.0688 59.9469 62.1093 59.6924 62.2134C59.4612 62.3117 59.2646 62.4215 59.1085 62.5545L58.9755 62.6644L58.8136 62.1556L58.8541 62.0978C59.1489 61.7508 59.6173 61.5253 60.2417 61.4328C60.1608 61.3461 60.0914 61.2478 60.022 61.1437C59.9353 61.0165 59.8659 60.8778 59.8023 60.7274C59.6404 60.3574 59.5479 59.9527 59.5363 59.5075V57.1484C59.5363 56.3274 59.8254 55.6567 60.4036 55.1363C60.9818 54.616 61.7277 54.3558 62.647 54.3558C63.1385 54.3558 63.601 54.4309 64.0462 54.5871C64.4857 54.7432 64.8441 54.9571 65.1274 55.2288C65.4339 55.5237 65.6478 55.8359 65.7635 56.1597C65.8733 56.4893 65.9311 56.9576 65.9427 57.5647C65.9427 57.7035 65.9369 57.8423 65.9253 57.9868C65.9022 58.1603 65.8675 58.3337 65.8213 58.4956C65.7056 58.9235 65.4975 59.2877 65.2026 59.5768C64.6591 60.1377 63.8612 60.4152 62.8205 60.421H62.7742L62.7626 60.4094ZM60.8431 57.6457C60.8431 58.0273 60.8488 58.2875 60.8662 58.4262C60.8951 58.646 60.9645 58.8425 61.0801 59.0276C61.4097 59.5768 61.9243 59.8544 62.6239 59.8544C63.3235 59.8544 63.8092 59.6462 64.1619 59.2299C64.3411 59.0102 64.4683 58.7732 64.5319 58.5245C64.6013 58.2759 64.636 57.9348 64.636 57.5011C64.636 56.6396 64.5203 56.021 64.2891 55.6567C63.9306 55.0959 63.3813 54.8183 62.6528 54.8183C62.0168 54.8183 61.56 55.0265 61.2767 55.4486C60.9934 55.8706 60.8488 56.5413 60.8488 57.4722V57.6399L60.8431 57.6457Z" fill="#789868"/>
<path d="M73.2915 55.2462C73.5459 55.4775 73.7425 55.7897 73.8813 56.1771C74.0085 56.524 74.0721 56.8651 74.0721 57.2063V61.005C74.0721 61.0397 74.0721 61.56 74.0663 62.5603C74.0663 62.861 73.9969 63.1385 73.864 63.3929C73.8177 63.4854 73.7599 63.5722 73.7021 63.6589C73.6789 63.6878 73.65 63.7167 73.6269 63.7514L73.598 63.7919L73.5691 63.815L73.5286 63.8612L73.4534 63.8786H71.9039V63.5722L71.9733 63.5375C72.3664 63.364 72.5977 63.0691 72.6844 62.6586C72.6844 62.647 72.6902 62.6124 72.6902 62.5488V62.1845C72.6902 62.1035 72.696 62.0342 72.696 61.9648V57.0617C72.696 56.9634 72.696 56.8536 72.6902 56.7206C72.6787 56.5703 72.6555 56.4199 72.6324 56.2754C72.563 55.9053 72.4647 55.6394 72.3375 55.4717C71.9848 55.0381 71.4413 54.8183 70.7128 54.8183C69.9265 54.8183 69.3483 55.0901 68.9898 55.6278C68.7643 55.9747 68.6545 56.4662 68.666 57.1138V57.2352H68.6602V62.225C68.6602 62.3753 68.666 62.4909 68.6718 62.5661C68.6718 62.595 68.6718 62.6181 68.6718 62.6355V62.647L68.6776 62.6586C68.7643 63.0749 69.0014 63.364 69.3888 63.5375L69.4581 63.5722V63.8786H67.845L67.8045 63.8323L67.7756 63.8034L67.7467 63.763C67.7178 63.7283 67.6889 63.6936 67.6657 63.6647C67.6021 63.5779 67.5443 63.4912 67.4981 63.3987C67.3651 63.1443 67.2957 62.861 67.2957 62.5603V60.3748C67.2957 59.8197 67.2899 59.3398 67.2899 58.9466C67.2899 57.8538 67.2899 57.241 67.2957 57.1138C67.2957 56.7379 67.3766 56.3852 67.5328 56.0499C67.6889 55.7088 67.9028 55.4254 68.1746 55.1942C68.8453 54.6218 69.6952 54.3384 70.7186 54.3384C71.742 54.3384 72.6208 54.6391 73.2858 55.2462" fill="#789868"/>
<path d="M82.4501 54.3384C83.3289 54.3384 83.9881 54.6622 84.4391 55.3098C84.7802 55.807 84.9479 56.3794 84.9479 57.0328C84.9479 57.2467 84.9074 57.5242 84.8149 57.8654C84.7166 58.247 84.601 58.565 84.4564 58.8078L84.4391 58.8483L83.167 59.3571L83.3 59.0854C83.3868 58.9177 83.4619 58.6112 83.5313 58.1602C83.6007 57.7266 83.6354 57.3623 83.6354 57.0617C83.6354 56.842 83.6238 56.6338 83.6065 56.4257C83.5776 56.1424 83.5255 55.8937 83.4561 55.6798C83.2653 55.0958 82.9473 54.8067 82.5079 54.8067H82.4674C82.0511 54.8241 81.7273 54.9744 81.4961 55.2577C81.2648 55.541 81.1145 55.9805 81.0509 56.5644C81.0335 56.7957 81.0277 57.0906 81.0335 57.4491C81.0393 57.8076 81.0566 58.0215 81.0855 58.0793C81.1087 58.1198 81.1607 58.1545 81.2359 58.1834C81.3226 58.2239 81.4093 58.2412 81.5018 58.247H81.6059V58.5476L81.5018 58.5592C81.3689 58.5708 81.1723 58.617 80.9121 58.6864C80.7965 58.7153 80.623 58.7674 80.4033 58.8425C80.3339 58.8656 80.2587 58.8888 80.1836 58.9119C80.1604 58.9177 80.1431 58.9292 80.12 58.935H80.1026L80.0968 58.9408L79.9407 58.9986V57.8422C79.9407 57.1426 79.9407 56.6685 79.9407 56.4257C79.9465 56.0152 79.8482 55.6567 79.6401 55.356C79.403 55.0149 79.0677 54.8357 78.6456 54.8067C78.4837 54.801 78.3218 54.8241 78.1483 54.8877C77.946 54.9629 77.7725 55.0785 77.6337 55.2288C77.3562 55.5353 77.2406 55.9516 77.2868 56.4719V58.7211C77.3157 59.6462 77.3851 60.2533 77.495 60.5482C77.6569 60.9818 78.0211 61.3114 78.5762 61.5369C79.7384 61.7913 80.8022 62.2192 81.7736 62.8089C82.0858 62.9997 82.3691 63.1905 82.6235 63.3929C82.7045 63.4565 82.7796 63.5201 82.849 63.5837C82.8722 63.6068 82.8895 63.6242 82.9126 63.6415C82.9126 63.6415 82.9242 63.6473 82.93 63.6531H82.9358V63.6646L83.1439 63.867H81.0971L81.0566 63.8207H81.0509L81.0451 63.8034C81.0335 63.7861 81.0219 63.7745 81.0046 63.7571C80.9583 63.7051 80.9063 63.6473 80.8427 63.5952C80.6577 63.4218 80.438 63.2541 80.1836 63.098C79.3741 62.6008 78.3854 62.2885 77.2232 62.1613C77.0151 62.1382 76.7491 62.1729 76.4369 62.277C76.1536 62.3637 75.9049 62.4793 75.7026 62.6123L75.5869 62.6875L75.3846 62.2076L75.4482 62.1498C75.7604 61.8607 76.2461 61.6583 76.9168 61.5485C76.5294 61.2247 76.2576 60.7852 76.0958 60.2186C76.0437 60.0394 76.009 59.8544 75.9917 59.6578C75.9859 59.5884 75.9801 59.5248 75.9743 59.4612V56.6049C75.9743 55.7897 76.3097 55.1768 76.9804 54.7663C77.229 54.6102 77.5065 54.4945 77.8188 54.4194C78.0674 54.3558 78.3044 54.3268 78.5184 54.3268H78.5762C79.484 54.3268 80.1547 54.6044 80.5825 55.1652C81.0682 54.6044 81.6926 54.3268 82.4559 54.3268" fill="#789868"/>
<path d="M93.4646 54.3731C94.1122 54.3789 94.6962 54.6102 95.2108 55.0554C95.8468 55.6104 96.1706 56.3679 96.1706 57.3277V62.6412C96.159 62.8783 96.0954 63.1269 95.9798 63.3698C95.9393 63.4623 95.8873 63.5548 95.8295 63.6473C95.8063 63.682 95.789 63.7167 95.7659 63.7514L95.7369 63.8034L95.708 63.8497L95.6791 63.9017L95.604 63.9133H94.1643V63.6068L94.2452 63.5837C94.4129 63.5317 94.5632 63.4045 94.6904 63.2079C94.8176 62.9997 94.887 62.7974 94.887 62.5834V57.3334C94.8639 56.4083 94.6499 55.755 94.2394 55.3618C94.0891 55.2173 93.9156 55.119 93.7191 55.0554C93.5745 55.0091 93.43 54.986 93.2796 54.986C92.9038 54.986 92.5742 55.1248 92.2967 55.4023C92.1522 55.5526 92.0365 55.7145 91.9498 55.9053C91.8746 56.073 91.8342 56.206 91.8342 56.31V58.9813C91.8342 59.3571 91.8342 59.6462 91.8457 59.8486C91.8457 60.0047 91.8515 60.103 91.8573 60.1435C91.9267 60.606 92.1001 60.8778 92.3834 60.9529L92.4702 60.9761V61.2709L92.3372 61.2594C92.1753 61.2362 92.0423 61.2305 91.9324 61.2305H90.5159C90.4118 61.2305 90.2673 61.242 90.0649 61.2594L89.9319 61.2709V60.9761L90.0128 60.9529C90.2788 60.872 90.4465 60.6407 90.5217 60.2533C90.5448 60.0972 90.5621 59.7503 90.5621 59.201V56.31C90.5621 56.31 90.5621 56.2811 90.5563 56.258C90.5563 56.2349 90.5564 56.206 90.5448 56.1771C90.5332 56.0961 90.5101 56.021 90.4812 55.94C90.4002 55.7145 90.2846 55.5237 90.1285 55.3676C89.8683 55.1132 89.5272 54.986 89.0993 54.986C88.7119 54.986 88.3766 55.1248 88.099 55.4023C87.6943 55.807 87.4977 56.4488 87.5151 57.3277V62.5834C87.5151 62.7916 87.5787 62.9997 87.7116 63.2079C87.8388 63.4102 87.9834 63.5374 88.1511 63.5837L88.2378 63.6068V63.9133H86.7287L86.6998 63.8612L86.6651 63.8092L86.6362 63.7629C86.6131 63.7225 86.59 63.682 86.5668 63.6473C86.509 63.549 86.457 63.4565 86.4165 63.364C86.3066 63.1154 86.2373 62.8725 86.2199 62.6412V57.3219C86.2199 56.2869 86.5553 55.5006 87.226 54.9686C87.4804 54.7605 87.7753 54.6102 88.1048 54.5061C88.3881 54.4194 88.6599 54.3731 88.9258 54.3731C89.4231 54.3731 89.8799 54.4656 90.2846 54.6506C90.6893 54.8357 91.0016 55.0843 91.2097 55.3965C91.7359 54.7142 92.4759 54.3731 93.43 54.3731H93.4704H93.4646Z" fill="#789868"/>
<path d="M102.548 54.8068C102.878 54.9918 103.161 55.2289 103.386 55.5179C103.658 55.8706 103.797 56.2349 103.797 56.6107V61.0917C103.797 61.959 103.456 62.647 102.779 63.1674C102.161 63.6358 101.415 63.8728 100.542 63.8728C100.05 63.8728 99.5877 63.7976 99.154 63.6415C98.7146 63.4912 98.3503 63.2773 98.0728 63.0055C97.5351 62.4852 97.2691 61.7509 97.2691 60.8026C97.2691 60.554 97.3096 60.2822 97.3963 59.9931C97.5004 59.6289 97.6565 59.2993 97.8704 59.0102C98.4313 58.2297 99.2696 57.8365 100.38 57.8307C100.889 57.8307 101.345 57.9406 101.744 58.1545C102.045 58.3106 102.294 58.5188 102.496 58.7789V56.4373V56.391C102.496 56.3563 102.496 56.3216 102.49 56.2869C102.479 56.1713 102.45 56.0557 102.415 55.94C102.299 55.5815 102.103 55.3156 101.808 55.1537C101.415 54.934 101.01 54.8183 100.599 54.8183C100.044 54.8183 99.5645 54.934 99.1598 55.171C98.6915 55.4428 98.4313 55.8302 98.3792 56.3216L98.3677 56.4315H98.119L97.6738 54.9398L97.7606 54.8935C98.148 54.7143 98.5758 54.5755 99.0499 54.4772C99.5183 54.3847 99.9924 54.3384 100.461 54.3384C101.282 54.3384 101.981 54.4946 102.554 54.8068M102.502 60.7621C102.502 60.1319 102.369 59.5942 102.103 59.1374C101.773 58.5939 101.259 58.3222 100.553 58.3222C99.9114 58.3222 99.4026 58.5535 99.021 59.0102C98.8418 59.2299 98.7146 59.4612 98.651 59.7098C98.5816 59.9585 98.5527 60.2996 98.5527 60.7275C98.5527 61.589 98.6683 62.2076 98.8996 62.5719C99.2465 63.1038 99.79 63.3698 100.53 63.3698C101.195 63.3698 101.686 63.1559 102.01 62.7338C102.34 62.3059 102.502 61.6468 102.502 60.7621Z" fill="#789868"/>
<path d="M111.55 55.2462C111.799 55.4775 112.001 55.7897 112.14 56.1771C112.267 56.524 112.331 56.8651 112.331 57.2063V61.005C112.331 61.0397 112.331 61.56 112.325 62.5603C112.325 62.861 112.256 63.1385 112.123 63.3929C112.077 63.4854 112.025 63.5722 111.961 63.6589C111.938 63.6878 111.909 63.7167 111.886 63.7514L111.857 63.7919L111.828 63.815L111.787 63.8612L111.712 63.8786H110.163V63.5722L110.232 63.5375C110.625 63.364 110.857 63.0691 110.943 62.6586C110.943 62.647 110.949 62.6124 110.949 62.5488V62.1845C110.949 62.1035 110.955 62.0342 110.955 61.9648V57.0617C110.955 56.9634 110.955 56.8536 110.949 56.7206C110.938 56.5703 110.92 56.4199 110.891 56.2754C110.822 55.9053 110.724 55.6394 110.596 55.4717C110.244 55.0381 109.706 54.8183 108.972 54.8183C108.185 54.8183 107.607 55.0901 107.249 55.6278C107.023 55.9747 106.913 56.4662 106.925 57.1138V57.2352H106.919V62.225C106.919 62.3753 106.925 62.4909 106.931 62.5661C106.931 62.595 106.936 62.6181 106.936 62.6355V62.647L106.942 62.6586C107.029 63.0749 107.266 63.364 107.653 63.5375L107.723 63.5722V63.8786H106.11L106.069 63.8323L106.04 63.8034L106.011 63.763C105.982 63.7283 105.954 63.6936 105.93 63.6647C105.867 63.5779 105.809 63.4912 105.763 63.3987C105.63 63.1443 105.56 62.861 105.56 62.5603V60.3748C105.56 59.8197 105.555 59.3398 105.555 58.9466C105.555 57.8538 105.555 57.241 105.56 57.1138C105.56 56.7379 105.647 56.3852 105.797 56.0499C105.954 55.7088 106.167 55.4254 106.439 55.1942C107.11 54.6218 107.96 54.3384 108.983 54.3384C110.007 54.3384 110.886 54.6391 111.55 55.2462Z" fill="#789868"/>
<path d="M120.669 59.4381L119.992 59.0044C119.957 58.9755 119.9 58.9292 119.813 58.8599C119.726 58.7905 119.639 58.698 119.547 58.5765C119.425 58.432 119.31 58.247 119.206 58.033C119.102 57.8307 119.055 57.5936 119.055 57.3219C119.055 57.2351 119.067 57.1426 119.078 57.0386C119.096 56.946 119.119 56.8535 119.142 56.7552C119.275 56.3852 119.529 56.0441 119.917 55.7376C120.293 55.4428 120.836 55.2924 121.542 55.2924C122.287 55.2924 122.877 55.4659 123.311 55.807C123.733 56.1597 123.941 56.5587 123.941 57.0039C123.941 57.4491 123.797 57.8422 123.513 58.1371C123.23 58.4378 122.825 58.698 122.293 58.9119L122.923 59.3282C122.964 59.3513 123.004 59.3802 123.039 59.4034C123.074 59.4265 123.114 59.4554 123.155 59.4785C123.664 59.8659 123.982 60.2417 124.109 60.5944C124.236 60.9414 124.3 61.2247 124.3 61.4444C124.3 62.2249 124.028 62.8436 123.49 63.3004C122.947 63.7514 122.351 63.9884 121.703 64.0058H121.623C120.686 64.0058 119.969 63.7803 119.472 63.3235C118.974 62.8725 118.726 62.3521 118.726 61.7508C118.726 61.1958 118.928 60.7274 119.333 60.3632C119.726 59.9931 120.171 59.6867 120.674 59.4438M122.409 60.554L121.004 59.6404C120.778 59.7618 120.599 59.9006 120.449 60.0509C120.304 60.2128 120.183 60.3805 120.09 60.5424C119.963 60.7852 119.876 61.0165 119.847 61.2304C119.801 61.4559 119.772 61.6178 119.767 61.7219V61.7739C119.767 61.7739 119.755 61.8086 119.755 61.826V61.9937C119.755 61.9937 119.755 62.0283 119.767 62.0457V62.144C119.813 62.6933 120.015 63.1038 120.379 63.3698C120.732 63.6415 121.137 63.7803 121.599 63.7803C122.131 63.7803 122.548 63.6184 122.854 63.2946C123.149 62.965 123.294 62.6008 123.294 62.1902C123.294 62.0746 123.282 61.9358 123.253 61.7797C123.23 61.6236 123.178 61.4675 123.097 61.2998C123.028 61.1726 122.947 61.0396 122.837 60.9182C122.721 60.791 122.582 60.6638 122.409 60.554ZM120.848 58.0041L121.987 58.7269C122.201 58.6228 122.374 58.5072 122.501 58.38C122.629 58.2528 122.733 58.1256 122.814 57.9926C122.912 57.8191 122.97 57.6514 122.999 57.4895C123.016 57.3277 123.022 57.2005 123.022 57.1079C123.022 56.6165 122.883 56.2349 122.605 55.9573C122.328 55.6798 121.969 55.5468 121.536 55.5468C121.004 55.5468 120.616 55.6625 120.379 55.8937C120.125 56.1308 120.004 56.3968 120.004 56.6801C120.004 56.9634 120.067 57.2005 120.2 57.3797C120.333 57.5705 120.472 57.7208 120.628 57.8365C120.663 57.8712 120.697 57.9001 120.744 57.929C120.784 57.9521 120.825 57.981 120.859 58.0041" fill="#789868"/>
</g>
<defs>
<clipPath id="clip0_1_36">
<rect width="135.979" height="64" fill="white"/>
</clipPath>
</defs>
</svg>
