<svg width="20" height="19" viewBox="0 0 20 19" fill="none" xmlns="http://www.w3.org/2000/svg">
<path d="M18.3472 12.8556L13.9306 10.8766L13.9184 10.8709C13.6892 10.7729 13.439 10.7335 13.1907 10.7564C12.9424 10.7794 12.7037 10.8638 12.4963 11.0022C12.4718 11.0183 12.4484 11.0359 12.4259 11.0547L10.1441 13C8.69845 12.2978 7.20595 10.8166 6.50376 9.38969L8.45188 7.07313C8.47063 7.04969 8.48845 7.02625 8.50532 7.00094C8.64072 6.79403 8.72287 6.55686 8.74446 6.31054C8.76605 6.06421 8.72641 5.81637 8.62907 5.58906V5.57781L6.64438 1.15375C6.5157 0.856812 6.29444 0.609453 6.01362 0.4486C5.7328 0.287747 5.4075 0.222027 5.08626 0.261251C3.81592 0.428414 2.64986 1.05228 1.80588 2.01634C0.961903 2.9804 0.497712 4.21871 0.500008 5.5C0.500008 12.9438 6.55626 19 14 19C15.2813 19.0023 16.5196 18.5381 17.4837 17.6941C18.4477 16.8501 19.0716 15.6841 19.2388 14.4138C19.2781 14.0926 19.2125 13.7674 19.0518 13.4866C18.8911 13.2058 18.644 12.9845 18.3472 12.8556ZM14 17.5C10.8185 17.4965 7.76825 16.2311 5.51856 13.9814C3.26888 11.7318 2.00348 8.68153 2.00001 5.5C1.99648 4.58452 2.32631 3.69906 2.92789 3.00898C3.52947 2.31889 4.36167 1.87138 5.26907 1.75C5.2687 1.75374 5.2687 1.75751 5.26907 1.76125L7.23782 6.1675L5.30001 8.48688C5.28034 8.50951 5.26247 8.53364 5.24657 8.55906C5.10549 8.77555 5.02273 9.02481 5.0063 9.28268C4.98988 9.54056 5.04035 9.7983 5.15282 10.0309C6.0022 11.7681 7.75251 13.5053 9.50845 14.3538C9.74279 14.4652 10.002 14.5139 10.2608 14.4952C10.5196 14.4764 10.7692 14.3909 10.985 14.2469C11.0091 14.2307 11.0322 14.2131 11.0544 14.1944L13.3334 12.25L17.7397 14.2234C17.7397 14.2234 17.7472 14.2234 17.75 14.2234C17.6301 15.1321 17.1833 15.966 16.4931 16.5691C15.8028 17.1721 14.9166 17.5031 14 17.5Z" fill="#789868"/>
</svg>
