<?xml version="1.0" encoding="UTF-8"?>
<svg id="Layer_1" data-name="Layer 1" xmlns="http://www.w3.org/2000/svg" viewBox="0 0 1190.55 841.89">
  <polygon data-href="housedetail" class="cls-22 bizi" points="903.79 519.07 838.12 519.07 838.12 451.17 749.45 451.17 749.45 570.8 838.12 570.8 838.12 570.37 903.79 570.37 903.79 519.07"/>
  <text x="32" y="50" text-anchor="middle" fill="white" font-size="30">X</text>
  <polygon data-href="housedetail" class="cls-22" points="1096.94 307.9 1008.52 307.9 1008.52 424.56 983.51 424.56 983.51 483.73 1012.78 483.73 1012.78 570.37 1094.52 570.37 1094.52 483.73 1094.52 480.16 1094.52 428.81 1096.94 428.81 1096.94 307.9"/>
  <polygon data-href="housedetail" class="cls-22" points="921.88 381.02 921.88 307.05 785.75 307.05 785.75 307.26 723.48 307.26 723.48 386.35 749.35 386.35 749.35 427.75 922.52 427.75 922.52 381.02 921.88 381.02"/>
  <polygon data-href="housedetail" class="cls-22" points="657.29 507.79 636.22 507.79 636.22 309.82 550.43 309.82 550.43 651.05 636.22 651.05 636.22 531.65 657.29 531.65 657.29 507.79"/>
  <polygon data-href="housedetail" class="cls-21" points="895.92 243.36 431.43 263.16 430.48 307.43 914.37 305.15 914.54 305.73 1094.95 307.2 1097.72 281.22 895.92 243.36"/>
  <polygon data-href="housedetail" class="cls-21" points="432.28 307.26 174.06 309.5 177.68 276.19 432.06 265.33 432.28 307.26"/>
  <polygon data-href="housedetail" class="cls-22" points="436.96 451.17 345.64 451.17 345.64 520.24 282.31 520.24 282.31 570.59 358.62 570.59 358.62 570.37 436.96 570.37 436.96 451.17"/>
  <polygon data-href="housedetail" class="cls-22" points="201.63 424.77 175.55 424.77 174.7 276.19 90.19 279.27 90.19 570.37 175.55 570.37 175.55 451.27 201.63 451.27 201.63 424.77"/>
 
</svg>