<?xml version="1.0" encoding="UTF-8"?>
<svg id="Layer_1" data-name="Layer 1" xmlns="http://www.w3.org/2000/svg" xmlns:xlink="http://www.w3.org/1999/xlink" viewBox="0 0 2500 1767">
  <polygon class="cls-1" points="422.59 906.31 422.59 957.42 361.49 957.42 361.49 1207.19 180.17 1207.19 180.5 585.94 367.43 578.02 366.11 818.01 366.11 819.78 361.27 819.34 361.16 906.86 422.59 906.31"/>
  <polygon class="cls-1" points="425.23 956.34 544.13 956.34 543.3 1207.19 365.62 1207.19 364.46 960.64 425.73 960.64 425.23 956.34"/>
  <polygon class="cls-1" points="371.73 578.02 551.73 571.74 548.59 904.99 425.56 906.47 425.07 903.17 364.46 903.01 364.46 823.9 372.55 823.41 371.73 578.02"/>
  <polygon class="cls-1" points="725.56 956.4 913.71 956.4 914.37 1206.86 590.2 1207.19 590.2 1099.33 722.31 1100.34 721.65 956.4 725.56 956.4"/>
  <polygon class="cls-1" points="913.49 905.87 550.4 905.21 554.26 570.64 909.08 556.22 907.87 653.65 971.95 654.31 971.95 823.85 914.37 823.85 913.49 905.87"/>
  <polygon class="cls-1" points="1148.75 1370.78 966.66 1370.78 967.76 827.59 973.49 826.49 975.69 826.49 976.57 817.68 974.15 817.68 974.59 654.31 974.37 652.11 909.85 652.11 911.62 556.22 1154.92 545.1 1154.92 969.39 1153.16 1016.73 1147.65 1016.51 1148.75 1370.78"/>
  <polygon class="cls-1" points="1156.95 545.1 1329.85 538.22 1327.32 1065.17 1327.98 1068.47 1376.2 1069.57 1376.2 1122.64 1328.42 1122.64 1329.52 1370.78 1151.17 1370.78 1149.69 1018.77 1154.92 1018.27 1156.95 545.1"/>
  <polygon class="cls-1" points="1329.85 1124.12 1377.66 1124.23 1377.55 1120.24 1519.98 1120.24 1518.88 1370.78 1331.34 1370.96 1329.85 1124.12"/>
  <polygon class="cls-1" points="1571.94 955.3 1763.28 956.4 1764.05 1099.85 1895.94 1099.85 1895.94 1206.53 1571.94 1206.53 1571.94 955.3"/>
  <polygon class="cls-1" points="1939.43 957.42 2124.16 957.42 2123.28 1031.87 2114.92 1031.87 2115.36 1206.53 1939.43 1206.53 1939.43 957.42"/>
  <polygon class="cls-1" points="2122.18 560.29 2304.27 596.18 2305.15 1206.53 2118.05 1206.53 2119.54 1034.62 2125.32 1034.12 2126.64 956.01 2064.14 955.68 2064.14 903.56 2123.06 904.66 2123.28 819.45 2114.48 819.45 2114.92 656.29 2123.72 656.07 2122.18 560.29"/>
  <polygon class="cls-1" points="1941.19 525.28 2118.66 559.41 2118.88 653.32 2113.48 653.32 2112.82 835.74 2120.97 835.74 2120.42 902.01 2061.52 900.69 2061.3 906.42 1936.07 906.42 1936.07 654.14 1939.37 653.98 1938.22 524.35 1941.19 525.28"/>
  <polygon class="cls-1" points="1572.6 906.47 1933.48 906.42 1933.26 654.09 1933.22 652.26 1937.87 652.26 1935.25 523.52 1880.42 513.78 1577.56 526.32 1577.34 654.14 1514.81 653.81 1513.16 818.12 1513.16 824.56 1572.6 824.9 1572.6 906.47"/>
  <polygon class="cls-1" points="1519.54 1070.45 1381.82 1070.34 1377.74 1070.01 1377.25 1066.88 1329.47 1066.88 1332.61 835.74 1330.02 835.74 1331.59 566.37 1331.83 537.23 1575.87 526.78 1575.87 652.77 1512.25 652.57 1512.33 666.69 1510.97 825.8 1519.84 825.93 1519.54 1070.45"/>
  <text class="cls-2" transform="translate(2015.09 1105.69) scale(.97 1)"><tspan class="cls-3" x="0" y="0">t</tspan><tspan x="6.95" y="0">est</tspan></text>
  <text class="cls-2" transform="translate(2176.3 934.59) scale(.97 1)"><tspan class="cls-3" x="0" y="0">t</tspan><tspan x="6.95" y="0">est</tspan></text>
  <text class="cls-2" transform="translate(1645.69 1105.69) scale(.97 1)"><tspan class="cls-3" x="0" y="0">t</tspan><tspan x="6.95" y="0">est</tspan></text>
  <text class="cls-2" transform="translate(2007.39 784.3) scale(.97 1)"><tspan class="cls-3" x="0" y="0">t</tspan><tspan x="6.95" y="0">est</tspan></text>
  <text class="cls-2" transform="translate(1760.66 784.3) scale(.97 1)"><tspan class="cls-3" x="0" y="0">t</tspan><tspan x="6.95" y="0">est</tspan></text>
  <text class="cls-2" transform="translate(1408.21 942.31) scale(.97 1)"><tspan class="cls-3" x="0" y="0">t</tspan><tspan x="6.95" y="0">est</tspan></text>
  <text class="cls-2" transform="translate(1226.28 942.31) scale(.97 1)"><tspan class="cls-3" x="0" y="0">t</tspan><tspan x="6.95" y="0">est</tspan></text>
  <text class="cls-2" transform="translate(1040.35 942.31) scale(.97 1)"><tspan class="cls-3" x="0" y="0">t</tspan><tspan x="6.95" y="0">est</tspan></text>
  <text class="cls-2" transform="translate(789.39 1099.33) scale(.97 1)"><tspan class="cls-3" x="0" y="0">t</tspan><tspan x="6.95" y="0">est</tspan></text>
  <text class="cls-2" transform="translate(431.54 1099.33) scale(.97 1)"><tspan class="cls-3" x="0" y="0">t</tspan><tspan x="6.95" y="0">est</tspan></text>
  <text class="cls-2" transform="translate(257.91 914.15) scale(.97 1)"><tspan class="cls-3" x="0" y="0">t</tspan><tspan x="6.95" y="0">est</tspan></text>
  <text class="cls-2" transform="translate(437.58 770.89) scale(.97 1)"><tspan class="cls-3" x="0" y="0">t</tspan><tspan x="6.95" y="0">est</tspan></text>
  <text class="cls-2" transform="translate(689.49 770.89) scale(.97 1)"><tspan class="cls-3" x="0" y="0">t</tspan><tspan x="6.95" y="0">est</tspan></text>
  <text class="cls-2" transform="translate(1408.21 1250.78) scale(.97 1)"><tspan class="cls-3" x="0" y="0">t</tspan><tspan x="6.95" y="0">est</tspan></text>
</svg>